<svg width="393" height="160" viewBox="0 0 393 160" fill="none" xmlns="http://www.w3.org/2000/svg">
<g filter="url(#filter0_d_101_33)">
<rect x="3.75" width="378.25" height="144.78" fill="#2FB078"/>
<rect x="4.25" y="0.5" width="377.25" height="143.78" stroke="white"/>
<path d="M31.6333 36H29.5073L29.521 34.6396H31.6333C32.2485 34.6396 32.7635 34.5052 33.1782 34.2363C33.5975 33.9674 33.9119 33.5824 34.1216 33.0811C34.3358 32.5798 34.4429 31.9827 34.4429 31.29V30.75C34.4429 30.2122 34.3813 29.736 34.2583 29.3213C34.1398 28.9066 33.9621 28.5579 33.7251 28.2754C33.4927 27.9928 33.2056 27.7786 32.8638 27.6328C32.5265 27.487 32.1369 27.4141 31.6948 27.4141H29.4663V26.0469H31.6948C32.3556 26.0469 32.9595 26.1585 33.5063 26.3818C34.0532 26.6006 34.5249 26.9173 34.9214 27.332C35.3224 27.7467 35.63 28.2435 35.8442 28.8223C36.0584 29.401 36.1655 30.0482 36.1655 30.7637V31.29C36.1655 32.0055 36.0584 32.6527 35.8442 33.2314C35.63 33.8102 35.3224 34.307 34.9214 34.7217C34.5203 35.1318 34.0418 35.4486 33.4858 35.6719C32.9344 35.8906 32.3169 36 31.6333 36ZM30.4575 26.0469V36H28.7417V26.0469H30.4575ZM45.8247 30.75V31.2969C45.8247 32.0488 45.7267 32.7233 45.5308 33.3203C45.3348 33.9173 45.0545 34.4255 44.6899 34.8447C44.3299 35.264 43.897 35.5853 43.3911 35.8086C42.8853 36.0273 42.3247 36.1367 41.7095 36.1367C41.0988 36.1367 40.5405 36.0273 40.0347 35.8086C39.5334 35.5853 39.0981 35.264 38.729 34.8447C38.3599 34.4255 38.0728 33.9173 37.8677 33.3203C37.6672 32.7233 37.5669 32.0488 37.5669 31.2969V30.75C37.5669 29.998 37.6672 29.3258 37.8677 28.7334C38.0682 28.1364 38.3507 27.6283 38.7153 27.209C39.0845 26.7852 39.5197 26.4639 40.021 26.2451C40.5269 26.0218 41.0851 25.9102 41.6958 25.9102C42.311 25.9102 42.8716 26.0218 43.3774 26.2451C43.8833 26.4639 44.3185 26.7852 44.6831 27.209C45.0477 27.6283 45.328 28.1364 45.5239 28.7334C45.7244 29.3258 45.8247 29.998 45.8247 30.75ZM44.1089 31.2969V30.7363C44.1089 30.1803 44.0542 29.6904 43.9448 29.2666C43.84 28.8382 43.6828 28.4805 43.4731 28.1934C43.2681 27.9017 43.0151 27.6829 42.7144 27.5371C42.4136 27.3867 42.0741 27.3115 41.6958 27.3115C41.3175 27.3115 40.9803 27.3867 40.6841 27.5371C40.3879 27.6829 40.1349 27.9017 39.9253 28.1934C39.7202 28.4805 39.563 28.8382 39.4536 29.2666C39.3442 29.6904 39.2896 30.1803 39.2896 30.7363V31.2969C39.2896 31.8529 39.3442 32.3451 39.4536 32.7734C39.563 33.2018 39.7225 33.5641 39.9321 33.8604C40.1463 34.152 40.4015 34.373 40.6978 34.5234C40.994 34.6693 41.3312 34.7422 41.7095 34.7422C42.0923 34.7422 42.4318 34.6693 42.728 34.5234C43.0243 34.373 43.2749 34.152 43.48 33.8604C43.6851 33.5641 43.84 33.2018 43.9448 32.7734C44.0542 32.3451 44.1089 31.8529 44.1089 31.2969ZM50.0356 33.7646L52.0181 26.0469H53.0571L52.9409 28.0361L50.8218 36H49.7417L50.0356 33.7646ZM48.5522 26.0469L50.1587 33.7031L50.3022 36H49.1538L46.8501 26.0469H48.5522ZM55.3062 33.6826L56.8921 26.0469H58.6011L56.2974 36H55.1489L55.3062 33.6826ZM53.4604 26.0469L55.4224 33.7852L55.7095 36H54.6294L52.5444 28.0361L52.4351 26.0469H53.4604ZM67.7681 26.0469V36H66.0522L61.5884 28.8701V36H59.8726V26.0469H61.5884L66.0659 33.1904V26.0469H67.7681ZM76.0464 34.6396V36H71.0493V34.6396H76.0464ZM71.5278 26.0469V36H69.812V26.0469H71.5278ZM84.8579 30.75V31.2969C84.8579 32.0488 84.7599 32.7233 84.564 33.3203C84.368 33.9173 84.0877 34.4255 83.7231 34.8447C83.3631 35.264 82.9302 35.5853 82.4243 35.8086C81.9185 36.0273 81.3579 36.1367 80.7427 36.1367C80.132 36.1367 79.5737 36.0273 79.0679 35.8086C78.5666 35.5853 78.1313 35.264 77.7622 34.8447C77.3931 34.4255 77.106 33.9173 76.9009 33.3203C76.7004 32.7233 76.6001 32.0488 76.6001 31.2969V30.75C76.6001 29.998 76.7004 29.3258 76.9009 28.7334C77.1014 28.1364 77.384 27.6283 77.7485 27.209C78.1177 26.7852 78.5529 26.4639 79.0542 26.2451C79.5601 26.0218 80.1183 25.9102 80.729 25.9102C81.3442 25.9102 81.9048 26.0218 82.4106 26.2451C82.9165 26.4639 83.3517 26.7852 83.7163 27.209C84.0809 27.6283 84.3612 28.1364 84.5571 28.7334C84.7576 29.3258 84.8579 29.998 84.8579 30.75ZM83.1421 31.2969V30.7363C83.1421 30.1803 83.0874 29.6904 82.978 29.2666C82.8732 28.8382 82.716 28.4805 82.5063 28.1934C82.3013 27.9017 82.0483 27.6829 81.7476 27.5371C81.4468 27.3867 81.1073 27.3115 80.729 27.3115C80.3507 27.3115 80.0135 27.3867 79.7173 27.5371C79.4211 27.6829 79.1681 27.9017 78.9585 28.1934C78.7534 28.4805 78.5962 28.8382 78.4868 29.2666C78.3774 29.6904 78.3228 30.1803 78.3228 30.7363V31.2969C78.3228 31.8529 78.3774 32.3451 78.4868 32.7734C78.5962 33.2018 78.7557 33.5641 78.9653 33.8604C79.1795 34.152 79.4347 34.373 79.731 34.5234C80.0272 34.6693 80.3644 34.7422 80.7427 34.7422C81.1255 34.7422 81.465 34.6693 81.7612 34.5234C82.0575 34.373 82.3081 34.152 82.5132 33.8604C82.7183 33.5641 82.8732 33.2018 82.978 32.7734C83.0874 32.3451 83.1421 31.8529 83.1421 31.2969ZM90.2993 27.373L87.3257 36H85.5278L89.2739 26.0469H90.4224L90.2993 27.373ZM92.7876 36L89.8071 27.373L89.6772 26.0469H90.8325L94.5923 36H92.7876ZM92.644 32.3086V33.6689H87.23V32.3086H92.644ZM98.5981 36H96.4722L96.4858 34.6396H98.5981C99.2134 34.6396 99.7284 34.5052 100.143 34.2363C100.562 33.9674 100.877 33.5824 101.086 33.0811C101.301 32.5798 101.408 31.9827 101.408 31.29V30.75C101.408 30.2122 101.346 29.736 101.223 29.3213C101.105 28.9066 100.927 28.5579 100.69 28.2754C100.458 27.9928 100.17 27.7786 99.8286 27.6328C99.4914 27.487 99.1017 27.4141 98.6597 27.4141H96.4312V26.0469H98.6597C99.3205 26.0469 99.9243 26.1585 100.471 26.3818C101.018 26.6006 101.49 26.9173 101.886 27.332C102.287 27.7467 102.595 28.2435 102.809 28.8223C103.023 29.401 103.13 30.0482 103.13 30.7637V31.29C103.13 32.0055 103.023 32.6527 102.809 33.2314C102.595 33.8102 102.287 34.307 101.886 34.7217C101.485 35.1318 101.007 35.4486 100.451 35.6719C99.8993 35.8906 99.2817 36 98.5981 36ZM97.4224 26.0469V36H95.7065V26.0469H97.4224ZM110.089 33.4365C110.089 33.2314 110.057 33.0492 109.994 32.8896C109.934 32.7301 109.827 32.5843 109.672 32.4521C109.517 32.32 109.299 32.1924 109.016 32.0693C108.738 31.9417 108.383 31.8118 107.95 31.6797C107.476 31.5339 107.038 31.3721 106.637 31.1943C106.241 31.012 105.894 30.8024 105.598 30.5654C105.302 30.3239 105.072 30.0482 104.908 29.7383C104.744 29.4238 104.662 29.0615 104.662 28.6514C104.662 28.2458 104.746 27.8766 104.915 27.5439C105.088 27.2113 105.332 26.9242 105.646 26.6826C105.965 26.4365 106.341 26.2474 106.774 26.1152C107.207 25.9785 107.685 25.9102 108.209 25.9102C108.948 25.9102 109.583 26.0469 110.117 26.3203C110.654 26.5938 111.067 26.9606 111.354 27.4209C111.646 27.8812 111.792 28.3893 111.792 28.9453H110.089C110.089 28.6172 110.019 28.3278 109.877 28.0771C109.741 27.8219 109.531 27.6214 109.249 27.4756C108.971 27.3298 108.617 27.2568 108.189 27.2568C107.783 27.2568 107.446 27.3184 107.177 27.4414C106.908 27.5645 106.708 27.7308 106.576 27.9404C106.444 28.1501 106.377 28.387 106.377 28.6514C106.377 28.8382 106.421 29.0091 106.507 29.1641C106.594 29.3145 106.726 29.4557 106.904 29.5879C107.082 29.7155 107.305 29.8363 107.574 29.9502C107.843 30.0641 108.159 30.1735 108.524 30.2783C109.075 30.4424 109.556 30.6247 109.966 30.8252C110.376 31.0212 110.718 31.2445 110.992 31.4951C111.265 31.7458 111.47 32.0306 111.607 32.3496C111.744 32.6641 111.812 33.0218 111.812 33.4229C111.812 33.8421 111.728 34.2204 111.559 34.5576C111.39 34.8903 111.149 35.1751 110.834 35.4121C110.525 35.6445 110.151 35.8245 109.713 35.9521C109.28 36.0752 108.797 36.1367 108.264 36.1367C107.786 36.1367 107.314 36.0729 106.849 35.9453C106.389 35.8177 105.97 35.624 105.591 35.3643C105.213 35.0999 104.912 34.7718 104.689 34.3799C104.466 33.9834 104.354 33.5208 104.354 32.9922H106.07C106.07 33.3158 106.125 33.5915 106.234 33.8193C106.348 34.0472 106.505 34.234 106.706 34.3799C106.906 34.5212 107.139 34.626 107.403 34.6943C107.672 34.7627 107.959 34.7969 108.264 34.7969C108.665 34.7969 109 34.7399 109.269 34.626C109.542 34.512 109.748 34.3525 109.884 34.1475C110.021 33.9424 110.089 33.7054 110.089 33.4365Z" fill="white"/>
<path d="M44.0337 79.3774V82.1899H28.6528L28.5356 80.0659L37.7349 65.6519H40.562L37.5005 70.896L32.2124 79.3774H44.0337ZM41.3677 65.6519V86.98H37.8374V65.6519H41.3677ZM60.2935 74.5288V78.0151C60.2935 79.6851 60.1274 81.1108 59.7954 82.2925C59.4731 83.4644 59.0044 84.4165 58.3892 85.1489C57.7739 85.8813 57.0366 86.4185 56.1772 86.7603C55.3276 87.1021 54.3755 87.2729 53.3208 87.2729C52.481 87.2729 51.6997 87.1655 50.9771 86.9507C50.2642 86.7358 49.6196 86.3989 49.0435 85.9399C48.4673 85.481 47.9741 84.8901 47.564 84.1675C47.1636 83.4351 46.8511 82.561 46.6265 81.5454C46.4116 80.5298 46.3042 79.353 46.3042 78.0151V74.5288C46.3042 72.8491 46.4702 71.4331 46.8022 70.2808C47.1343 69.1187 47.6079 68.1763 48.2231 67.4536C48.8384 66.7212 49.5708 66.189 50.4204 65.8569C51.2798 65.5249 52.2368 65.3589 53.2915 65.3589C54.1411 65.3589 54.9224 65.4663 55.6353 65.6812C56.3579 65.8862 57.0024 66.2134 57.5688 66.6626C58.145 67.1118 58.6333 67.6978 59.0337 68.4204C59.4438 69.1333 59.7563 69.9976 59.9712 71.0132C60.186 72.019 60.2935 73.1909 60.2935 74.5288ZM56.7632 78.5132V74.0015C56.7632 73.1519 56.7144 72.4048 56.6167 71.7603C56.519 71.106 56.3726 70.5542 56.1772 70.105C55.9917 69.646 55.7573 69.2749 55.4741 68.9917C55.1909 68.6987 54.8687 68.4888 54.5073 68.3618C54.146 68.2251 53.7407 68.1567 53.2915 68.1567C52.7446 68.1567 52.2563 68.2642 51.8267 68.479C51.397 68.6841 51.0356 69.0161 50.7427 69.4751C50.4497 69.9341 50.2251 70.5396 50.0688 71.2915C49.9224 72.0337 49.8491 72.937 49.8491 74.0015V78.5132C49.8491 79.3726 49.8979 80.1294 49.9956 80.7837C50.0933 81.438 50.2397 81.9995 50.4351 82.4683C50.6304 82.9272 50.8647 83.3081 51.1382 83.6108C51.4214 83.9038 51.7437 84.1187 52.105 84.2554C52.4761 84.3921 52.8813 84.4604 53.3208 84.4604C53.8774 84.4604 54.3706 84.353 54.8003 84.1382C55.23 83.9233 55.5913 83.5815 55.8843 83.1128C56.1772 82.6343 56.397 82.0142 56.5435 81.2524C56.6899 80.4907 56.7632 79.5776 56.7632 78.5132ZM77.3442 74.5288V78.0151C77.3442 79.6851 77.1782 81.1108 76.8462 82.2925C76.5239 83.4644 76.0552 84.4165 75.4399 85.1489C74.8247 85.8813 74.0874 86.4185 73.228 86.7603C72.3784 87.1021 71.4263 87.2729 70.3716 87.2729C69.5317 87.2729 68.7505 87.1655 68.0278 86.9507C67.3149 86.7358 66.6704 86.3989 66.0942 85.9399C65.5181 85.481 65.0249 84.8901 64.6147 84.1675C64.2144 83.4351 63.9019 82.561 63.6772 81.5454C63.4624 80.5298 63.355 79.353 63.355 78.0151V74.5288C63.355 72.8491 63.521 71.4331 63.853 70.2808C64.1851 69.1187 64.6587 68.1763 65.2739 67.4536C65.8892 66.7212 66.6216 66.189 67.4712 65.8569C68.3306 65.5249 69.2876 65.3589 70.3423 65.3589C71.1919 65.3589 71.9731 65.4663 72.686 65.6812C73.4087 65.8862 74.0532 66.2134 74.6196 66.6626C75.1958 67.1118 75.6841 67.6978 76.0845 68.4204C76.4946 69.1333 76.8071 69.9976 77.022 71.0132C77.2368 72.019 77.3442 73.1909 77.3442 74.5288ZM73.814 78.5132V74.0015C73.814 73.1519 73.7651 72.4048 73.6675 71.7603C73.5698 71.106 73.4233 70.5542 73.228 70.105C73.0425 69.646 72.8081 69.2749 72.5249 68.9917C72.2417 68.6987 71.9194 68.4888 71.5581 68.3618C71.1968 68.2251 70.7915 68.1567 70.3423 68.1567C69.7954 68.1567 69.3071 68.2642 68.8774 68.479C68.4478 68.6841 68.0864 69.0161 67.7935 69.4751C67.5005 69.9341 67.2759 70.5396 67.1196 71.2915C66.9731 72.0337 66.8999 72.937 66.8999 74.0015V78.5132C66.8999 79.3726 66.9487 80.1294 67.0464 80.7837C67.144 81.438 67.2905 81.9995 67.4858 82.4683C67.6812 82.9272 67.9155 83.3081 68.189 83.6108C68.4722 83.9038 68.7944 84.1187 69.1558 84.2554C69.5269 84.3921 69.9321 84.4604 70.3716 84.4604C70.9282 84.4604 71.4214 84.353 71.8511 84.1382C72.2808 83.9233 72.6421 83.5815 72.9351 83.1128C73.228 82.6343 73.4478 82.0142 73.5942 81.2524C73.7407 80.4907 73.814 79.5776 73.814 78.5132ZM90.1323 65.5786V86.98H86.6021V69.7681L81.3726 71.5405V68.6255L89.7075 65.5786H90.1323ZM108.208 65.52H108.648V68.4058H108.399C107.139 68.4058 106.05 68.6011 105.132 68.9917C104.224 69.3823 103.477 69.9194 102.891 70.603C102.305 71.2866 101.866 72.0874 101.573 73.0054C101.29 73.9136 101.148 74.8804 101.148 75.9058V79.2603C101.148 80.1099 101.241 80.8618 101.426 81.5161C101.612 82.1606 101.871 82.7026 102.203 83.1421C102.544 83.5718 102.935 83.8989 103.375 84.1235C103.814 84.3481 104.288 84.4604 104.795 84.4604C105.323 84.4604 105.801 84.353 106.231 84.1382C106.661 83.9136 107.027 83.606 107.33 83.2153C107.632 82.8247 107.862 82.3608 108.018 81.8237C108.174 81.2866 108.252 80.7007 108.252 80.0659C108.252 79.4604 108.174 78.894 108.018 78.3667C107.872 77.8296 107.652 77.3608 107.359 76.9604C107.066 76.5503 106.7 76.2329 106.26 76.0083C105.831 75.7739 105.333 75.6567 104.766 75.6567C104.063 75.6567 103.423 75.8228 102.847 76.1548C102.281 76.4868 101.822 76.9214 101.47 77.4585C101.128 77.9858 100.943 78.5474 100.914 79.1431L99.5659 78.7036C99.644 77.7954 99.8442 76.98 100.167 76.2573C100.499 75.5347 100.933 74.9194 101.47 74.4116C102.007 73.9038 102.627 73.5181 103.331 73.2544C104.043 72.981 104.825 72.8442 105.674 72.8442C106.709 72.8442 107.608 73.0396 108.37 73.4302C109.131 73.8208 109.761 74.353 110.259 75.0269C110.767 75.6909 111.143 76.4526 111.387 77.312C111.641 78.1616 111.768 79.0503 111.768 79.978C111.768 81.0034 111.612 81.9604 111.299 82.8491C110.987 83.728 110.528 84.4995 109.922 85.1636C109.327 85.8276 108.599 86.3452 107.74 86.7163C106.89 87.0874 105.923 87.2729 104.839 87.2729C103.697 87.2729 102.676 87.0532 101.778 86.6138C100.889 86.1743 100.132 85.5688 99.5073 84.7974C98.8921 84.0259 98.4233 83.1372 98.1011 82.1313C97.7788 81.1255 97.6177 80.061 97.6177 78.938V77.4731C97.6177 75.8521 97.8228 74.3237 98.2329 72.8882C98.6431 71.4429 99.2729 70.1685 100.123 69.0649C100.982 67.9614 102.081 67.0972 103.418 66.4722C104.756 65.8374 106.353 65.52 108.208 65.52Z" fill="white"/>
<g clip-path="url(#clip0_101_33)">
<path d="M350.52 64.73V60.98H326.02V92.98H350.52V89.23H354.27V64.73H350.52ZM327.895 91.105V62.855H331.645V91.105H327.895ZM348.645 91.105H333.583V62.855H348.645V91.105ZM352.395 87.355H350.52V81.6675H352.395V87.355ZM352.395 79.7925H350.52V74.1675H352.395V79.7925ZM350.52 72.2925V66.605H352.395V72.2925H350.52ZM335.458 68.48H344.833V70.4175H335.458V68.48ZM335.458 72.2925H342.958V74.1675H335.458V72.2925Z" fill="white"/>
</g>
<path d="M33.4106 106.013H33.52V107.086H33.4106C32.7407 107.086 32.1802 107.196 31.729 107.415C31.2778 107.629 30.9201 107.918 30.6558 108.283C30.3914 108.643 30.2 109.048 30.0815 109.5C29.9676 109.951 29.9106 110.409 29.9106 110.874V112.336C29.9106 112.778 29.9631 113.17 30.0679 113.512C30.1727 113.849 30.3162 114.134 30.4985 114.367C30.6808 114.599 30.8859 114.775 31.1138 114.893C31.3462 115.012 31.5877 115.071 31.8384 115.071C32.13 115.071 32.3898 115.016 32.6177 114.907C32.8455 114.793 33.0369 114.636 33.1919 114.435C33.3514 114.23 33.4722 113.988 33.5542 113.71C33.6362 113.432 33.6772 113.127 33.6772 112.794C33.6772 112.498 33.6408 112.213 33.5679 111.94C33.495 111.662 33.3833 111.416 33.2329 111.202C33.0825 110.983 32.8934 110.812 32.6655 110.689C32.4422 110.561 32.1756 110.498 31.8657 110.498C31.5148 110.498 31.1867 110.584 30.8813 110.757C30.5806 110.926 30.3322 111.149 30.1362 111.427C29.9448 111.701 29.8354 111.999 29.8081 112.323L29.1382 112.316C29.202 111.806 29.3205 111.37 29.4937 111.01C29.6714 110.646 29.8901 110.349 30.1499 110.122C30.4142 109.889 30.7082 109.721 31.0317 109.616C31.3599 109.506 31.7062 109.452 32.0708 109.452C32.5675 109.452 32.9959 109.545 33.356 109.732C33.716 109.919 34.0122 110.169 34.2446 110.484C34.4771 110.794 34.6479 111.145 34.7573 111.537C34.8713 111.924 34.9282 112.323 34.9282 112.733C34.9282 113.202 34.8621 113.642 34.73 114.052C34.5978 114.462 34.3996 114.822 34.1353 115.132C33.8755 115.442 33.5542 115.684 33.1714 115.857C32.7886 116.03 32.3442 116.117 31.8384 116.117C31.3006 116.117 30.8312 116.007 30.4302 115.789C30.0291 115.565 29.6965 115.269 29.4321 114.9C29.1678 114.531 28.9696 114.121 28.8374 113.669C28.7052 113.218 28.6392 112.76 28.6392 112.295V111.701C28.6392 110.999 28.7098 110.311 28.8511 109.636C28.9924 108.962 29.2362 108.351 29.5825 107.804C29.9334 107.257 30.4188 106.822 31.0386 106.499C31.6584 106.175 32.4491 106.013 33.4106 106.013ZM43.1587 112.63V113.669H35.9673V112.924L40.4243 106.027H41.4565L40.3491 108.023L37.4028 112.63H43.1587ZM41.771 106.027V115.98H40.5063V106.027H41.771ZM44.4644 115.31C44.4644 115.096 44.5304 114.916 44.6626 114.77C44.7993 114.62 44.9953 114.544 45.2505 114.544C45.5057 114.544 45.6994 114.62 45.8315 114.77C45.9683 114.916 46.0366 115.096 46.0366 115.31C46.0366 115.52 45.9683 115.697 45.8315 115.843C45.6994 115.989 45.5057 116.062 45.2505 116.062C44.9953 116.062 44.7993 115.989 44.6626 115.843C44.5304 115.697 44.4644 115.52 44.4644 115.31ZM54.2466 110.21V111.728C54.2466 112.544 54.1737 113.232 54.0278 113.792C53.882 114.353 53.6724 114.804 53.3989 115.146C53.1255 115.488 52.7951 115.736 52.4077 115.891C52.0249 116.042 51.592 116.117 51.1089 116.117C50.7261 116.117 50.3729 116.069 50.0493 115.973C49.7257 115.877 49.4341 115.725 49.1743 115.515C48.9191 115.301 48.7004 115.023 48.5181 114.681C48.3358 114.339 48.1968 113.925 48.1011 113.437C48.0054 112.949 47.9575 112.38 47.9575 111.728V110.21C47.9575 109.395 48.0304 108.711 48.1763 108.16C48.3267 107.608 48.5386 107.166 48.812 106.833C49.0854 106.496 49.4136 106.255 49.7964 106.109C50.1838 105.963 50.6167 105.89 51.0952 105.89C51.4826 105.89 51.8381 105.938 52.1616 106.034C52.4897 106.125 52.7814 106.273 53.0366 106.478C53.2918 106.679 53.5083 106.947 53.686 107.285C53.8683 107.617 54.0073 108.025 54.103 108.508C54.1987 108.991 54.2466 109.559 54.2466 110.21ZM52.9751 111.933V109.999C52.9751 109.552 52.9478 109.16 52.8931 108.823C52.8429 108.481 52.7677 108.189 52.6675 107.948C52.5672 107.706 52.4396 107.51 52.2847 107.36C52.1343 107.209 51.9588 107.1 51.7583 107.032C51.5623 106.959 51.3413 106.922 51.0952 106.922C50.7944 106.922 50.5278 106.979 50.2954 107.093C50.063 107.203 49.867 107.378 49.7075 107.62C49.5526 107.861 49.4341 108.178 49.3521 108.57C49.27 108.962 49.229 109.438 49.229 109.999V111.933C49.229 112.38 49.2541 112.774 49.3042 113.116C49.3589 113.458 49.4386 113.754 49.5435 114.004C49.6483 114.25 49.7759 114.453 49.9263 114.613C50.0767 114.772 50.2498 114.891 50.4458 114.968C50.6463 115.041 50.8674 115.078 51.1089 115.078C51.4188 115.078 51.6899 115.018 51.9224 114.9C52.1548 114.781 52.3485 114.597 52.5034 114.346C52.6629 114.091 52.7814 113.765 52.8589 113.369C52.9364 112.968 52.9751 112.489 52.9751 111.933ZM62.1216 110.21V111.728C62.1216 112.544 62.0487 113.232 61.9028 113.792C61.757 114.353 61.5474 114.804 61.2739 115.146C61.0005 115.488 60.6701 115.736 60.2827 115.891C59.8999 116.042 59.467 116.117 58.9839 116.117C58.6011 116.117 58.2479 116.069 57.9243 115.973C57.6007 115.877 57.3091 115.725 57.0493 115.515C56.7941 115.301 56.5754 115.023 56.3931 114.681C56.2108 114.339 56.0718 113.925 55.9761 113.437C55.8804 112.949 55.8325 112.38 55.8325 111.728V110.21C55.8325 109.395 55.9054 108.711 56.0513 108.16C56.2017 107.608 56.4136 107.166 56.687 106.833C56.9604 106.496 57.2886 106.255 57.6714 106.109C58.0588 105.963 58.4917 105.89 58.9702 105.89C59.3576 105.89 59.7131 105.938 60.0366 106.034C60.3647 106.125 60.6564 106.273 60.9116 106.478C61.1668 106.679 61.3833 106.947 61.561 107.285C61.7433 107.617 61.8823 108.025 61.978 108.508C62.0737 108.991 62.1216 109.559 62.1216 110.21ZM60.8501 111.933V109.999C60.8501 109.552 60.8228 109.16 60.7681 108.823C60.7179 108.481 60.6427 108.189 60.5425 107.948C60.4422 107.706 60.3146 107.51 60.1597 107.36C60.0093 107.209 59.8338 107.1 59.6333 107.032C59.4373 106.959 59.2163 106.922 58.9702 106.922C58.6694 106.922 58.4028 106.979 58.1704 107.093C57.938 107.203 57.742 107.378 57.5825 107.62C57.4276 107.861 57.3091 108.178 57.2271 108.57C57.145 108.962 57.104 109.438 57.104 109.999V111.933C57.104 112.38 57.1291 112.774 57.1792 113.116C57.2339 113.458 57.3136 113.754 57.4185 114.004C57.5233 114.25 57.6509 114.453 57.8013 114.613C57.9517 114.772 58.1248 114.891 58.3208 114.968C58.5213 115.041 58.7424 115.078 58.9839 115.078C59.2938 115.078 59.5649 115.018 59.7974 114.9C60.0298 114.781 60.2235 114.597 60.3784 114.346C60.5379 114.091 60.6564 113.765 60.7339 113.369C60.8114 112.968 60.8501 112.489 60.8501 111.933ZM63.6392 108.467V107.941C63.6392 107.563 63.7212 107.219 63.8853 106.909C64.0493 106.599 64.284 106.35 64.5894 106.164C64.8947 105.977 65.257 105.883 65.6763 105.883C66.1047 105.883 66.4692 105.977 66.77 106.164C67.0754 106.35 67.3101 106.599 67.4741 106.909C67.6382 107.219 67.7202 107.563 67.7202 107.941V108.467C67.7202 108.836 67.6382 109.176 67.4741 109.486C67.3146 109.796 67.0822 110.044 66.7769 110.231C66.4761 110.418 66.1138 110.511 65.6899 110.511C65.2661 110.511 64.8993 110.418 64.5894 110.231C64.284 110.044 64.0493 109.796 63.8853 109.486C63.7212 109.176 63.6392 108.836 63.6392 108.467ZM64.5894 107.941V108.467C64.5894 108.677 64.6281 108.875 64.7056 109.062C64.7876 109.249 64.9106 109.402 65.0747 109.52C65.2388 109.634 65.4438 109.691 65.6899 109.691C65.936 109.691 66.1388 109.634 66.2983 109.52C66.4578 109.402 66.5763 109.249 66.6538 109.062C66.7313 108.875 66.77 108.677 66.77 108.467V107.941C66.77 107.727 66.729 107.526 66.647 107.339C66.5695 107.148 66.4487 106.995 66.2847 106.881C66.1252 106.763 65.9224 106.704 65.6763 106.704C65.4347 106.704 65.2319 106.763 65.0679 106.881C64.9084 106.995 64.7876 107.148 64.7056 107.339C64.6281 107.526 64.5894 107.727 64.5894 107.941ZM68.4858 114.073V113.54C68.4858 113.166 68.5679 112.824 68.7319 112.514C68.896 112.204 69.1307 111.956 69.436 111.769C69.7414 111.582 70.1037 111.489 70.5229 111.489C70.9513 111.489 71.3159 111.582 71.6167 111.769C71.922 111.956 72.1567 112.204 72.3208 112.514C72.4849 112.824 72.5669 113.166 72.5669 113.54V114.073C72.5669 114.446 72.4849 114.788 72.3208 115.098C72.1613 115.408 71.9289 115.656 71.6235 115.843C71.3228 116.03 70.9604 116.124 70.5366 116.124C70.1128 116.124 69.7482 116.03 69.4429 115.843C69.1375 115.656 68.9006 115.408 68.7319 115.098C68.5679 114.788 68.4858 114.446 68.4858 114.073ZM69.436 113.54V114.073C69.436 114.282 69.4748 114.483 69.5522 114.674C69.6343 114.861 69.7573 115.014 69.9214 115.132C70.0854 115.246 70.2905 115.303 70.5366 115.303C70.7827 115.303 70.9855 115.246 71.145 115.132C71.3091 115.014 71.4299 114.861 71.5073 114.674C71.5848 114.487 71.6235 114.287 71.6235 114.073V113.54C71.6235 113.325 71.5825 113.125 71.5005 112.938C71.423 112.751 71.3022 112.601 71.1382 112.487C70.9787 112.368 70.7736 112.309 70.5229 112.309C70.2814 112.309 70.0786 112.368 69.9146 112.487C69.755 112.601 69.6343 112.751 69.5522 112.938C69.4748 113.125 69.436 113.325 69.436 113.54ZM70.8374 107.442L65.9771 115.221L65.2661 114.77L70.1265 106.991L70.8374 107.442Z" fill="white"/>
<path d="M77.8627 112.797V112.742C77.8627 111.948 77.952 111.229 78.1307 110.588C78.3093 109.942 78.5372 109.377 78.8143 108.892C79.0913 108.408 79.383 108.007 79.6893 107.689C79.9955 107.369 80.2781 107.137 80.5369 106.995L80.7502 107.662C80.5351 107.826 80.3163 108.052 80.0939 108.34C79.8752 108.628 79.6729 108.982 79.4869 109.401C79.3046 109.82 79.157 110.307 79.0439 110.861C78.9309 111.415 78.8744 112.039 78.8744 112.732V112.808C78.8744 113.501 78.9309 114.126 79.0439 114.684C79.157 115.238 79.3046 115.727 79.4869 116.15C79.6729 116.572 79.8752 116.932 80.0939 117.227C80.3163 117.526 80.5351 117.763 80.7502 117.938L80.5369 118.55C80.2781 118.408 79.9955 118.177 79.6893 117.856C79.383 117.539 79.0913 117.138 78.8143 116.653C78.5372 116.171 78.3093 115.608 78.1307 114.963C77.952 114.317 77.8627 113.596 77.8627 112.797ZM83.1072 111.501H83.8291C84.1827 111.501 84.4744 111.443 84.7041 111.326C84.9374 111.206 85.1106 111.044 85.2236 110.839C85.3403 110.632 85.3986 110.398 85.3986 110.139C85.3986 109.833 85.3476 109.576 85.2455 109.368C85.1434 109.16 84.9903 109.004 84.7861 108.898C84.582 108.792 84.3231 108.739 84.0096 108.739C83.7252 108.739 83.4736 108.796 83.2549 108.909C83.0398 109.018 82.8702 109.175 82.7463 109.379C82.626 109.583 82.5658 109.824 82.5658 110.101H81.5541C81.5541 109.696 81.6562 109.328 81.8604 108.996C82.0645 108.665 82.3507 108.4 82.7189 108.203C83.0908 108.007 83.521 107.908 84.0096 107.908C84.4908 107.908 84.9119 107.994 85.2729 108.165C85.6338 108.333 85.9145 108.584 86.115 108.92C86.3156 109.252 86.4158 109.665 86.4158 110.161C86.4158 110.362 86.3684 110.577 86.2736 110.807C86.1825 111.033 86.0385 111.244 85.8416 111.441C85.6484 111.638 85.3968 111.8 85.0869 111.928C84.777 112.052 84.4051 112.114 83.9713 112.114H83.1072V111.501ZM83.1072 112.332V111.725H83.9713C84.4781 111.725 84.8973 111.785 85.2291 111.906C85.5609 112.026 85.8215 112.186 86.0111 112.387C86.2044 112.588 86.3393 112.808 86.4158 113.049C86.496 113.286 86.5361 113.523 86.5361 113.76C86.5361 114.132 86.4723 114.461 86.3447 114.75C86.2208 115.038 86.0439 115.282 85.8143 115.482C85.5882 115.683 85.3221 115.834 85.0158 115.936C84.7096 116.038 84.376 116.089 84.015 116.089C83.6687 116.089 83.3424 116.04 83.0361 115.942C82.7335 115.843 82.4656 115.701 82.2322 115.515C81.9989 115.326 81.8166 115.094 81.6854 114.821C81.5541 114.544 81.4885 114.228 81.4885 113.875H82.5002C82.5002 114.152 82.5604 114.394 82.6807 114.602C82.8046 114.81 82.9796 114.972 83.2057 115.089C83.4354 115.202 83.7051 115.258 84.015 115.258C84.3249 115.258 84.5911 115.205 84.8135 115.1C85.0395 114.99 85.2127 114.826 85.333 114.607C85.457 114.389 85.5189 114.113 85.5189 113.782C85.5189 113.45 85.4497 113.178 85.3111 112.967C85.1726 112.752 84.9757 112.593 84.7205 112.491C84.4689 112.385 84.1718 112.332 83.8291 112.332H83.1072ZM92.9291 111.364V112.578C92.9291 113.231 92.8708 113.782 92.7541 114.23C92.6374 114.678 92.4697 115.039 92.251 115.313C92.0322 115.586 91.7679 115.785 91.458 115.909C91.1518 116.029 90.8054 116.089 90.4189 116.089C90.1127 116.089 89.8301 116.051 89.5713 115.975C89.3124 115.898 89.0791 115.776 88.8713 115.608C88.6671 115.437 88.4921 115.214 88.3463 114.941C88.2005 114.667 88.0893 114.336 88.0127 113.946C87.9361 113.556 87.8979 113.1 87.8979 112.578V111.364C87.8979 110.712 87.9562 110.165 88.0729 109.724C88.1932 109.283 88.3627 108.929 88.5814 108.663C88.8002 108.393 89.0627 108.2 89.3689 108.083C89.6788 107.966 90.0252 107.908 90.408 107.908C90.7179 107.908 91.0023 107.946 91.2611 108.023C91.5236 108.096 91.757 108.214 91.9611 108.378C92.1653 108.539 92.3385 108.754 92.4807 109.024C92.6265 109.29 92.7377 109.616 92.8143 110.003C92.8908 110.389 92.9291 110.843 92.9291 111.364ZM91.9119 112.742V111.195C91.9119 110.838 91.89 110.524 91.8463 110.254C91.8062 109.981 91.746 109.747 91.6658 109.554C91.5856 109.361 91.4835 109.204 91.3596 109.084C91.2393 108.964 91.0989 108.876 90.9385 108.821C90.7817 108.763 90.6049 108.734 90.408 108.734C90.1674 108.734 89.9541 108.779 89.7682 108.871C89.5822 108.958 89.4255 109.098 89.2979 109.292C89.1739 109.485 89.0791 109.738 89.0135 110.052C88.9479 110.365 88.915 110.746 88.915 111.195V112.742C88.915 113.1 88.9351 113.415 88.9752 113.689C89.0189 113.962 89.0827 114.199 89.1666 114.4C89.2505 114.596 89.3525 114.759 89.4729 114.886C89.5932 115.014 89.7317 115.109 89.8885 115.171C90.0489 115.229 90.2257 115.258 90.4189 115.258C90.6669 115.258 90.8838 115.211 91.0697 115.116C91.2557 115.021 91.4106 114.873 91.5346 114.673C91.6622 114.469 91.757 114.208 91.8189 113.891C91.8809 113.57 91.9119 113.187 91.9119 112.742ZM100.848 114.832V107.58H101.865V115.98H100.935L100.848 114.832ZM96.8666 113.087V112.972C96.8666 112.52 96.9213 112.11 97.0307 111.742C97.1437 111.37 97.3023 111.051 97.5064 110.785C97.7143 110.519 97.9604 110.314 98.2447 110.172C98.5327 110.026 98.8536 109.953 99.2072 109.953C99.5791 109.953 99.9036 110.019 100.181 110.15C100.461 110.278 100.698 110.466 100.892 110.714C101.088 110.958 101.243 111.253 101.356 111.6C101.469 111.946 101.548 112.338 101.592 112.775V113.278C101.551 113.712 101.473 114.102 101.356 114.449C101.243 114.795 101.088 115.09 100.892 115.335C100.698 115.579 100.461 115.767 100.181 115.898C99.8999 116.026 99.5718 116.089 99.1963 116.089C98.8499 116.089 98.5327 116.015 98.2447 115.865C97.9604 115.716 97.7143 115.506 97.5064 115.236C97.3023 114.966 97.1437 114.649 97.0307 114.285C96.9213 113.916 96.8666 113.517 96.8666 113.087ZM97.8838 112.972V113.087C97.8838 113.382 97.913 113.659 97.9713 113.918C98.0333 114.177 98.1281 114.405 98.2557 114.602C98.3833 114.799 98.5455 114.954 98.7424 115.067C98.9393 115.176 99.1744 115.231 99.4478 115.231C99.7833 115.231 100.059 115.16 100.274 115.017C100.492 114.875 100.667 114.688 100.799 114.454C100.93 114.221 101.032 113.967 101.105 113.694V112.376C101.061 112.176 100.997 111.982 100.913 111.796C100.833 111.607 100.728 111.439 100.596 111.293C100.469 111.144 100.31 111.025 100.121 110.938C99.9346 110.85 99.714 110.807 99.4588 110.807C99.1817 110.807 98.9429 110.865 98.7424 110.982C98.5455 111.095 98.3833 111.251 98.2557 111.452C98.1281 111.649 98.0333 111.878 97.9713 112.141C97.913 112.4 97.8838 112.677 97.8838 112.972ZM106.929 114.968V111.922C106.929 111.689 106.882 111.486 106.787 111.315C106.696 111.14 106.557 111.005 106.371 110.91C106.185 110.816 105.956 110.768 105.682 110.768C105.427 110.768 105.203 110.812 105.01 110.9C104.82 110.987 104.671 111.102 104.561 111.244C104.455 111.386 104.403 111.539 104.403 111.703H103.391C103.391 111.492 103.446 111.282 103.555 111.075C103.664 110.867 103.821 110.679 104.025 110.511C104.233 110.34 104.481 110.205 104.769 110.107C105.061 110.004 105.385 109.953 105.742 109.953C106.173 109.953 106.552 110.026 106.88 110.172C107.212 110.318 107.471 110.539 107.656 110.834C107.846 111.126 107.941 111.492 107.941 111.933V114.689C107.941 114.886 107.957 115.096 107.99 115.318C108.026 115.541 108.079 115.732 108.149 115.892V115.98H107.093C107.042 115.863 107.002 115.708 106.973 115.515C106.944 115.318 106.929 115.136 106.929 114.968ZM107.104 112.392L107.115 113.103H106.092C105.804 113.103 105.547 113.127 105.321 113.175C105.095 113.218 104.906 113.286 104.753 113.377C104.599 113.468 104.483 113.583 104.403 113.721C104.322 113.856 104.282 114.015 104.282 114.197C104.282 114.383 104.324 114.553 104.408 114.706C104.492 114.859 104.618 114.981 104.785 115.072C104.957 115.16 105.166 115.203 105.414 115.203C105.724 115.203 105.998 115.138 106.235 115.007C106.472 114.875 106.659 114.715 106.798 114.525C106.94 114.336 107.017 114.152 107.028 113.973L107.46 114.46C107.434 114.613 107.365 114.782 107.252 114.968C107.139 115.154 106.987 115.333 106.798 115.504C106.612 115.672 106.39 115.812 106.131 115.925C105.875 116.035 105.587 116.089 105.267 116.089C104.866 116.089 104.514 116.011 104.211 115.854C103.912 115.697 103.679 115.488 103.511 115.225C103.347 114.959 103.265 114.662 103.265 114.334C103.265 114.017 103.327 113.738 103.451 113.497C103.575 113.253 103.754 113.051 103.987 112.89C104.22 112.726 104.501 112.602 104.829 112.518C105.157 112.434 105.524 112.392 105.928 112.392H107.104ZM111.107 115.367L112.753 110.063H113.836L111.463 116.893C111.408 117.039 111.335 117.196 111.244 117.364C111.156 117.535 111.043 117.697 110.905 117.85C110.766 118.003 110.599 118.127 110.402 118.222C110.209 118.321 109.977 118.37 109.707 118.37C109.627 118.37 109.525 118.359 109.401 118.337C109.277 118.315 109.19 118.297 109.138 118.282L109.133 117.462C109.162 117.466 109.208 117.469 109.27 117.473C109.335 117.48 109.381 117.484 109.406 117.484C109.636 117.484 109.831 117.453 109.992 117.391C110.152 117.333 110.287 117.232 110.396 117.09C110.509 116.952 110.606 116.76 110.686 116.516L111.107 115.367ZM109.899 110.063L111.435 114.657L111.698 115.723L110.971 116.095L108.794 110.063H109.899ZM118.195 114.41C118.195 114.265 118.162 114.13 118.096 114.006C118.034 113.878 117.905 113.763 117.708 113.661C117.515 113.556 117.223 113.464 116.833 113.388C116.505 113.319 116.208 113.236 115.942 113.142C115.679 113.047 115.455 112.932 115.269 112.797C115.087 112.662 114.946 112.504 114.848 112.321C114.749 112.139 114.7 111.926 114.7 111.682C114.7 111.448 114.751 111.228 114.853 111.02C114.959 110.812 115.107 110.628 115.296 110.467C115.49 110.307 115.721 110.181 115.991 110.09C116.261 109.999 116.561 109.953 116.893 109.953C117.367 109.953 117.772 110.037 118.107 110.205C118.443 110.373 118.7 110.597 118.878 110.878C119.057 111.155 119.146 111.463 119.146 111.802H118.135C118.135 111.638 118.085 111.479 117.987 111.326C117.892 111.169 117.752 111.04 117.566 110.938C117.384 110.836 117.159 110.785 116.893 110.785C116.612 110.785 116.385 110.828 116.21 110.916C116.038 111 115.912 111.107 115.832 111.239C115.756 111.37 115.717 111.508 115.717 111.654C115.717 111.764 115.736 111.862 115.772 111.95C115.812 112.033 115.881 112.112 115.98 112.185C116.078 112.254 116.217 112.32 116.396 112.382C116.574 112.444 116.802 112.506 117.079 112.567C117.564 112.677 117.963 112.808 118.277 112.961C118.59 113.114 118.824 113.302 118.977 113.525C119.13 113.747 119.206 114.017 119.206 114.334C119.206 114.593 119.152 114.83 119.042 115.045C118.937 115.26 118.782 115.446 118.578 115.603C118.377 115.756 118.136 115.876 117.856 115.964C117.579 116.047 117.267 116.089 116.921 116.089C116.399 116.089 115.958 115.996 115.597 115.81C115.236 115.625 114.963 115.384 114.777 115.089C114.591 114.793 114.498 114.482 114.498 114.153H115.515C115.53 114.431 115.61 114.651 115.756 114.815C115.901 114.976 116.08 115.09 116.292 115.16C116.503 115.225 116.713 115.258 116.921 115.258C117.198 115.258 117.429 115.222 117.615 115.149C117.805 115.076 117.949 114.976 118.047 114.848C118.146 114.72 118.195 114.575 118.195 114.41ZM122.865 112.742V112.797C122.865 113.596 122.776 114.317 122.597 114.963C122.418 115.608 122.191 116.171 121.913 116.653C121.636 117.138 121.345 117.539 121.038 117.856C120.732 118.177 120.45 118.408 120.191 118.55L119.978 117.938C120.193 117.774 120.41 117.544 120.628 117.249C120.847 116.957 121.049 116.596 121.235 116.166C121.421 115.739 121.571 115.247 121.684 114.689C121.797 114.128 121.853 113.501 121.853 112.808V112.732C121.853 112.039 121.793 111.414 121.673 110.856C121.553 110.294 121.396 109.8 121.203 109.374C121.013 108.947 120.809 108.588 120.59 108.296C120.375 108.001 120.171 107.773 119.978 107.613L120.191 106.995C120.45 107.137 120.732 107.369 121.038 107.689C121.345 108.007 121.636 108.408 121.913 108.892C122.191 109.377 122.418 109.942 122.597 110.588C122.776 111.229 122.865 111.948 122.865 112.742Z" fill="white"/>
</g>
<defs>
<filter id="filter0_d_101_33" x="0.75" y="0" width="392.25" height="159.78" filterUnits="userSpaceOnUse" color-interpolation-filters="sRGB">
<feFlood flood-opacity="0" result="BackgroundImageFix"/>
<feColorMatrix in="SourceAlpha" type="matrix" values="0 0 0 0 0 0 0 0 0 0 0 0 0 0 0 0 0 0 127 0" result="hardAlpha"/>
<feMorphology radius="2" operator="erode" in="SourceAlpha" result="effect1_dropShadow_101_33"/>
<feOffset dx="4" dy="8"/>
<feGaussianBlur stdDeviation="4.5"/>
<feComposite in2="hardAlpha" operator="out"/>
<feColorMatrix type="matrix" values="0 0 0 0 0.780392 0 0 0 0 0.772549 0 0 0 0 0.847059 0 0 0 1 0"/>
<feBlend mode="normal" in2="BackgroundImageFix" result="effect1_dropShadow_101_33"/>
<feBlend mode="normal" in="SourceGraphic" in2="effect1_dropShadow_101_33" result="shape"/>
</filter>
<clipPath id="clip0_101_33">
<rect width="32" height="32" fill="white" transform="matrix(1 0 0 -1 326.02 92.98)"/>
</clipPath>
</defs>
</svg>
