<svg width="133" height="34" viewBox="0 0 133 34" fill="none" xmlns="http://www.w3.org/2000/svg">
<path d="M13.9726 34C23.4274 34 27.9452 29.4356 27.9452 23.4739V0.698608H18.6301V22.0767C18.6301 24.5452 17.1397 26.0356 13.9726 26.0356C10.9918 26.0356 9.31506 24.5918 9.31506 22.0767V0.698608H0V23.4739C0 29.5753 4.98357 34 13.9726 34Z" fill="white"/>
<path d="M44.9881 25.1507C42.5662 25.1507 39.5853 23.6603 38.1881 21.5644L30.084 26.1288C33.1114 30.7397 38.5607 34 45.221 34C52.9525 34 59.2867 31.3918 59.2867 23.1014C59.2867 16.0219 53.4182 14.0192 46.1059 12.4822C41.4484 11.5041 40.284 10.8986 40.284 10.1534C40.284 9.31507 41.1689 8.84931 43.9169 8.84931C47.5963 8.84931 49.0401 10.1534 50.3908 11.5973L58.4018 6.84657C56.2593 3.26027 52.5333 0 44.9881 0C35.9991 0 30.9689 4.42466 30.9689 10.3863C30.9689 17.8849 36.6977 20.2603 43.4977 21.4247C48.5744 22.3096 49.0401 23.1014 49.0401 23.8C49.0401 24.6849 46.8977 25.1507 44.9881 25.1507Z" fill="white"/>
<path d="M71.1794 0.698608H61.8644V33.3013H71.1794V0.698608Z" fill="white"/>
<path d="M88.3308 34C97.7856 34 102.303 29.4356 102.303 22.5425L92.9883 21.611C92.9883 24.0794 91.4979 25.5699 88.3308 25.5699C85.35 25.5699 83.6732 24.126 83.6732 21.611V12.389C83.6732 9.87397 85.35 8.43013 88.3308 8.43013C91.4979 8.43013 92.9883 9.92055 92.9883 12.389L102.303 11.4575C102.303 4.56438 97.7856 0 88.3308 0C79.3417 0 74.3582 4.42466 74.3582 11.4575V22.5425C74.3582 29.5753 79.3417 34 88.3308 34Z" fill="white"/>
<path d="M113.894 33.3013H132.99L117.62 0.698608L102.25 33.3013H111.565L118.272 19.0959L113.894 33.3013Z" fill="white"/>
</svg>
