<svg width="126" height="33" viewBox="0 0 126 33" fill="none" xmlns="http://www.w3.org/2000/svg">
<path d="M13.1738 32.771C22.0724 32.771 26.3244 28.4751 26.3244 22.8641V1.42853H17.5573V21.5491C17.5573 23.8724 16.1546 25.2751 13.1738 25.2751C10.3683 25.2751 8.79019 23.9162 8.79019 21.5491V1.42853H0.0230713V22.8641C0.0230713 28.6066 4.71349 32.771 13.1738 32.771Z" fill="#9471F3"/>
<path d="M42.3649 24.4422C40.0854 24.4422 37.2799 23.0395 35.9649 21.0669L28.3375 25.3628C31.1868 29.7025 36.3155 32.771 42.584 32.771C49.8607 32.771 55.8224 30.3162 55.8224 22.5135C55.8224 15.8504 50.2991 13.9655 43.4169 12.5189C39.0334 11.5984 37.9375 11.0285 37.9375 10.3272C37.9375 9.53812 38.7703 9.09976 41.3566 9.09976C44.8197 9.09976 46.1786 10.3272 47.4498 11.6861L54.9895 7.21483C52.9731 3.83949 49.4662 0.770996 42.3649 0.770996C33.9046 0.770996 29.1703 4.93538 29.1703 10.5463C29.1703 17.6039 34.5621 19.8395 40.9621 20.9354C45.7402 21.7683 46.1786 22.5135 46.1786 23.171C46.1786 24.0039 44.1621 24.4422 42.3649 24.4422Z" fill="#7783E8"/>
<path d="M67.0155 1.42853H58.2484V32.1135H67.0155V1.42853Z" fill="#5A95DE"/>
<path d="M83.158 32.771C92.0566 32.771 96.3087 28.4751 96.3087 21.9874L87.5416 21.1107C87.5416 23.434 86.1388 24.8368 83.158 24.8368C80.3525 24.8368 78.7744 23.4778 78.7744 21.1107V12.4313C78.7744 10.0641 80.3525 8.70524 83.158 8.70524C86.1388 8.70524 87.5416 10.108 87.5416 12.4313L96.3087 11.5546C96.3087 5.06688 92.0566 0.770996 83.158 0.770996C74.6977 0.770996 70.0073 4.93538 70.0073 11.5546V21.9874C70.0073 28.6066 74.6977 32.771 83.158 32.771Z" fill="#3CA6D3"/>
<path d="M107.218 32.1135H125.19L110.724 1.42853L96.2587 32.1135H105.026L111.338 18.7436L107.218 32.1135Z" fill="#1FB8C8"/>
</svg>
