<svg width="393" height="160" viewBox="0 0 393 160" fill="none" xmlns="http://www.w3.org/2000/svg">
<g filter="url(#filter0_d_101_22)">
<rect x="3" width="378.25" height="144.78" fill="#9141A4"/>
<rect x="3.5" y="0.5" width="377.25" height="143.78" stroke="white"/>
<path d="M27.9917 26.0469H31.5122C32.2687 26.0469 32.9136 26.1608 33.4468 26.3887C33.98 26.6165 34.3879 26.9538 34.6704 27.4004C34.9575 27.8424 35.1011 28.3893 35.1011 29.041C35.1011 29.5378 35.0099 29.9753 34.8276 30.3535C34.6453 30.7318 34.3879 31.0508 34.0552 31.3105C33.7225 31.5658 33.326 31.764 32.8657 31.9053L32.3462 32.1582H29.1812L29.1675 30.7979H31.5396C31.9497 30.7979 32.2915 30.7249 32.5649 30.5791C32.8384 30.4333 33.0435 30.235 33.1802 29.9844C33.3215 29.7292 33.3921 29.4421 33.3921 29.123C33.3921 28.7767 33.3237 28.4759 33.187 28.2207C33.0549 27.9609 32.8498 27.7627 32.5718 27.626C32.2938 27.4847 31.9406 27.4141 31.5122 27.4141H29.7075V36H27.9917V26.0469ZM33.6724 36L31.3345 31.5293L33.1323 31.5225L35.5044 35.9111V36H33.6724ZM43.3247 34.6396V36H38.0405V34.6396H43.3247ZM38.5259 26.0469V36H36.8101V26.0469H38.5259ZM42.6343 30.2031V31.543H38.0405V30.2031H42.6343ZM43.2905 26.0469V27.4141H38.0405V26.0469H43.2905ZM48.1372 34.1816L50.7554 26.0469H52.6489L49.0806 36H47.8022L48.1372 34.1816ZM45.7173 26.0469L48.3149 34.1816L48.6704 36H47.3853L43.8306 26.0469H45.7173ZM60.2778 34.6396V36H54.9937V34.6396H60.2778ZM55.479 26.0469V36H53.7632V26.0469H55.479ZM59.5874 30.2031V31.543H54.9937V30.2031H59.5874ZM60.2437 26.0469V27.4141H54.9937V26.0469H60.2437ZM69.5747 26.0469V36H67.8589L63.395 28.8701V36H61.6792V26.0469H63.395L67.8726 33.1904V26.0469H69.5747ZM77.2036 26.0469H78.9126V32.6982C78.9126 33.4548 78.7485 34.0882 78.4204 34.5986C78.0923 35.109 77.6457 35.4941 77.0806 35.7539C76.52 36.0091 75.8934 36.1367 75.2007 36.1367C74.4852 36.1367 73.8472 36.0091 73.2866 35.7539C72.7261 35.4941 72.284 35.109 71.9604 34.5986C71.6414 34.0882 71.4819 33.4548 71.4819 32.6982V26.0469H73.1909V32.6982C73.1909 33.1768 73.2729 33.571 73.437 33.8809C73.6011 34.1862 73.8335 34.4118 74.1343 34.5576C74.4351 34.7035 74.7905 34.7764 75.2007 34.7764C75.6108 34.7764 75.964 34.7035 76.2603 34.5576C76.561 34.4118 76.7935 34.1862 76.9575 33.8809C77.1216 33.571 77.2036 33.1768 77.2036 32.6982V26.0469ZM87.2935 34.6396V36H82.0093V34.6396H87.2935ZM82.4946 26.0469V36H80.7788V26.0469H82.4946ZM86.603 30.2031V31.543H82.0093V30.2031H86.603ZM87.2593 26.0469V27.4141H82.0093V26.0469H87.2593Z" fill="white"/>
<path d="M43.2837 79.3774V82.1899H27.9028L27.7856 80.0659L36.9849 65.6519H39.812L36.7505 70.896L31.4624 79.3774H43.2837ZM40.6177 65.6519V86.98H37.0874V65.6519H40.6177ZM59.8071 65.6519V67.5854L51.2817 86.98H47.561L56.0718 68.4644H45.0269V65.6519H59.8071ZM76.5942 74.5288V78.0151C76.5942 79.6851 76.4282 81.1108 76.0962 82.2925C75.7739 83.4644 75.3052 84.4165 74.6899 85.1489C74.0747 85.8813 73.3374 86.4185 72.478 86.7603C71.6284 87.1021 70.6763 87.2729 69.6216 87.2729C68.7817 87.2729 68.0005 87.1655 67.2778 86.9507C66.5649 86.7358 65.9204 86.3989 65.3442 85.9399C64.7681 85.481 64.2749 84.8901 63.8647 84.1675C63.4644 83.4351 63.1519 82.561 62.9272 81.5454C62.7124 80.5298 62.605 79.353 62.605 78.0151V74.5288C62.605 72.8491 62.771 71.4331 63.103 70.2808C63.4351 69.1187 63.9087 68.1763 64.5239 67.4536C65.1392 66.7212 65.8716 66.189 66.7212 65.8569C67.5806 65.5249 68.5376 65.3589 69.5923 65.3589C70.4419 65.3589 71.2231 65.4663 71.936 65.6812C72.6587 65.8862 73.3032 66.2134 73.8696 66.6626C74.4458 67.1118 74.9341 67.6978 75.3345 68.4204C75.7446 69.1333 76.0571 69.9976 76.272 71.0132C76.4868 72.019 76.5942 73.1909 76.5942 74.5288ZM73.064 78.5132V74.0015C73.064 73.1519 73.0151 72.4048 72.9175 71.7603C72.8198 71.106 72.6733 70.5542 72.478 70.105C72.2925 69.646 72.0581 69.2749 71.7749 68.9917C71.4917 68.6987 71.1694 68.4888 70.8081 68.3618C70.4468 68.2251 70.0415 68.1567 69.5923 68.1567C69.0454 68.1567 68.5571 68.2642 68.1274 68.479C67.6978 68.6841 67.3364 69.0161 67.0435 69.4751C66.7505 69.9341 66.5259 70.5396 66.3696 71.2915C66.2231 72.0337 66.1499 72.937 66.1499 74.0015V78.5132C66.1499 79.3726 66.1987 80.1294 66.2964 80.7837C66.394 81.438 66.5405 81.9995 66.7358 82.4683C66.9312 82.9272 67.1655 83.3081 67.439 83.6108C67.7222 83.9038 68.0444 84.1187 68.4058 84.2554C68.7769 84.3921 69.1821 84.4604 69.6216 84.4604C70.1782 84.4604 70.6714 84.353 71.1011 84.1382C71.5308 83.9233 71.8921 83.5815 72.1851 83.1128C72.478 82.6343 72.6978 82.0142 72.8442 81.2524C72.9907 80.4907 73.064 79.5776 73.064 78.5132ZM83.8892 74.7192H85.9985C86.8188 74.7192 87.4976 74.5776 88.0347 74.2944C88.5815 74.0112 88.9868 73.6206 89.2505 73.1226C89.5142 72.6245 89.646 72.0532 89.646 71.4087C89.646 70.7349 89.5239 70.1587 89.2798 69.6802C89.0454 69.1919 88.6841 68.8159 88.1958 68.5522C87.7173 68.2886 87.1069 68.1567 86.3647 68.1567C85.7397 68.1567 85.1733 68.2837 84.6655 68.5376C84.1675 68.7817 83.772 69.1333 83.479 69.5923C83.186 70.0415 83.0396 70.5786 83.0396 71.2036H79.4946C79.4946 70.0708 79.7925 69.0649 80.3882 68.186C80.9839 67.3071 81.7944 66.6187 82.8198 66.1206C83.855 65.6128 85.0171 65.3589 86.3062 65.3589C87.6831 65.3589 88.8843 65.5884 89.9097 66.0474C90.9448 66.4966 91.7505 67.1704 92.3267 68.0688C92.9028 68.9673 93.1909 70.0806 93.1909 71.4087C93.1909 72.0142 93.0493 72.6294 92.7661 73.2544C92.4829 73.8794 92.063 74.4507 91.5063 74.9683C90.9497 75.4761 90.2563 75.8911 89.4263 76.2134C88.5962 76.5259 87.6343 76.6821 86.5405 76.6821H83.8892V74.7192ZM83.8892 77.4731V75.5396H86.5405C87.7905 75.5396 88.855 75.686 89.7339 75.979C90.6226 76.272 91.3452 76.6772 91.9019 77.1948C92.4585 77.7026 92.8638 78.2837 93.1177 78.938C93.3813 79.5923 93.5132 80.2856 93.5132 81.0181C93.5132 82.0142 93.3325 82.9028 92.9712 83.6841C92.6196 84.4556 92.1167 85.1099 91.4624 85.647C90.8081 86.1841 90.0415 86.5894 89.1626 86.8628C88.2935 87.1362 87.3462 87.2729 86.3208 87.2729C85.4028 87.2729 84.5239 87.146 83.6841 86.8921C82.8442 86.6382 82.0923 86.2622 81.4282 85.7642C80.7642 85.2563 80.2368 84.6265 79.8462 83.8745C79.4653 83.1128 79.2749 82.2339 79.2749 81.2378H82.8052C82.8052 81.8726 82.9517 82.4341 83.2446 82.9224C83.5474 83.4009 83.9673 83.7769 84.5044 84.0503C85.0513 84.3237 85.6763 84.4604 86.3794 84.4604C87.1216 84.4604 87.7612 84.3286 88.2983 84.0649C88.8354 83.8013 89.2456 83.4106 89.5288 82.8931C89.8218 82.3755 89.9683 81.7505 89.9683 81.0181C89.9683 80.188 89.8071 79.5142 89.4849 78.9966C89.1626 78.479 88.7036 78.0981 88.1079 77.854C87.5122 77.6001 86.8091 77.4731 85.9985 77.4731H83.8892ZM100.94 74.7192H103.049C103.87 74.7192 104.548 74.5776 105.085 74.2944C105.632 74.0112 106.038 73.6206 106.301 73.1226C106.565 72.6245 106.697 72.0532 106.697 71.4087C106.697 70.7349 106.575 70.1587 106.331 69.6802C106.096 69.1919 105.735 68.8159 105.247 68.5522C104.768 68.2886 104.158 68.1567 103.416 68.1567C102.791 68.1567 102.224 68.2837 101.716 68.5376C101.218 68.7817 100.823 69.1333 100.53 69.5923C100.237 70.0415 100.09 70.5786 100.09 71.2036H96.5454C96.5454 70.0708 96.8433 69.0649 97.439 68.186C98.0347 67.3071 98.8452 66.6187 99.8706 66.1206C100.906 65.6128 102.068 65.3589 103.357 65.3589C104.734 65.3589 105.935 65.5884 106.96 66.0474C107.996 66.4966 108.801 67.1704 109.377 68.0688C109.954 68.9673 110.242 70.0806 110.242 71.4087C110.242 72.0142 110.1 72.6294 109.817 73.2544C109.534 73.8794 109.114 74.4507 108.557 74.9683C108 75.4761 107.307 75.8911 106.477 76.2134C105.647 76.5259 104.685 76.6821 103.591 76.6821H100.94V74.7192ZM100.94 77.4731V75.5396H103.591C104.841 75.5396 105.906 75.686 106.785 75.979C107.673 76.272 108.396 76.6772 108.953 77.1948C109.509 77.7026 109.915 78.2837 110.168 78.938C110.432 79.5923 110.564 80.2856 110.564 81.0181C110.564 82.0142 110.383 82.9028 110.022 83.6841C109.67 84.4556 109.167 85.1099 108.513 85.647C107.859 86.1841 107.092 86.5894 106.213 86.8628C105.344 87.1362 104.397 87.2729 103.372 87.2729C102.454 87.2729 101.575 87.146 100.735 86.8921C99.895 86.6382 99.1431 86.2622 98.479 85.7642C97.8149 85.2563 97.2876 84.6265 96.897 83.8745C96.5161 83.1128 96.3257 82.2339 96.3257 81.2378H99.856C99.856 81.8726 100.002 82.4341 100.295 82.9224C100.598 83.4009 101.018 83.7769 101.555 84.0503C102.102 84.3237 102.727 84.4604 103.43 84.4604C104.172 84.4604 104.812 84.3286 105.349 84.0649C105.886 83.8013 106.296 83.4106 106.58 82.8931C106.873 82.3755 107.019 81.7505 107.019 81.0181C107.019 80.188 106.858 79.5142 106.536 78.9966C106.213 78.479 105.754 78.0981 105.159 77.854C104.563 77.6001 103.86 77.4731 103.049 77.4731H100.94Z" fill="white"/>
<g clip-path="url(#clip0_101_22)">
<path d="M357.27 92.0425C357.145 86.98 352.02 82.605 345.02 81.48V78.855C345.895 77.98 346.583 76.605 347.02 75.4175C347.645 75.105 348.208 74.4175 348.52 73.48C348.958 72.1675 348.77 70.98 348.145 70.4175C348.145 69.98 348.208 69.48 348.145 69.0425C348.02 67.7925 348.27 67.105 348.52 66.48C348.708 65.98 348.958 65.355 348.708 64.6675C347.895 62.2925 345.458 60.98 341.895 60.98H341.395C338.958 61.105 338.208 62.105 337.708 63.105C337.645 63.23 337.52 63.355 337.52 63.355C334.333 63.6675 334.333 66.355 334.395 68.48V69.1675C334.395 69.5425 334.395 69.98 334.458 70.355C333.645 70.9175 333.458 72.23 334.083 73.605C334.458 74.4175 334.958 74.98 335.52 75.2925C335.958 76.605 336.708 78.105 337.708 79.0425V81.4175C330.583 82.5425 325.395 86.9175 325.27 92.0425V92.98H357.27V92.0425ZM327.27 91.105C328.02 87.1675 332.645 83.9175 338.77 83.1675L339.583 83.105V78.0425L339.208 77.7925C338.458 77.2925 337.708 75.98 337.145 74.2925L337.02 73.7925L336.458 73.6675C336.333 73.6675 336.02 73.4175 335.833 72.855C335.708 72.5425 335.645 72.2925 335.583 72.105L336.583 72.355L336.395 70.98C336.333 70.355 336.27 69.73 336.27 69.1675V68.4175C336.208 65.9175 336.333 65.355 337.708 65.23C338.77 65.1675 339.145 64.4175 339.395 63.98C339.645 63.4175 339.895 62.9175 341.458 62.855H341.895C343.458 62.855 346.208 63.1675 346.895 65.2925C346.895 65.355 346.833 65.605 346.77 65.7925C346.458 66.48 346.083 67.5425 346.27 69.2925C346.333 69.605 346.27 70.105 346.208 70.5425L346.02 72.0425L346.895 71.98C346.895 72.1675 346.833 72.48 346.708 72.855C346.52 73.4175 346.27 73.6675 346.27 73.73H345.583L345.395 74.355C344.833 75.98 344.145 77.1675 343.458 77.6675L343.083 77.98V83.105L343.958 83.23C349.958 83.98 354.583 87.23 355.27 91.105H327.27Z" fill="white"/>
</g>
<path d="M34.0552 110.21V111.728C34.0552 112.544 33.9823 113.232 33.8364 113.792C33.6906 114.353 33.481 114.804 33.2075 115.146C32.9341 115.488 32.6037 115.736 32.2163 115.891C31.8335 116.042 31.4006 116.117 30.9175 116.117C30.5347 116.117 30.1815 116.069 29.8579 115.973C29.5343 115.877 29.2427 115.725 28.9829 115.515C28.7277 115.301 28.509 115.023 28.3267 114.681C28.1444 114.339 28.0054 113.925 27.9097 113.437C27.814 112.949 27.7661 112.38 27.7661 111.728V110.21C27.7661 109.395 27.839 108.711 27.9849 108.16C28.1353 107.608 28.3472 107.166 28.6206 106.833C28.894 106.496 29.2222 106.255 29.605 106.109C29.9924 105.963 30.4253 105.89 30.9038 105.89C31.2912 105.89 31.6466 105.938 31.9702 106.034C32.2983 106.125 32.59 106.273 32.8452 106.478C33.1004 106.679 33.3169 106.947 33.4946 107.285C33.6769 107.617 33.8159 108.025 33.9116 108.508C34.0073 108.991 34.0552 109.559 34.0552 110.21ZM32.7837 111.933V109.999C32.7837 109.552 32.7563 109.16 32.7017 108.823C32.6515 108.481 32.5763 108.189 32.4761 107.948C32.3758 107.706 32.2482 107.51 32.0933 107.36C31.9429 107.209 31.7674 107.1 31.5669 107.032C31.3709 106.959 31.1499 106.922 30.9038 106.922C30.603 106.922 30.3364 106.979 30.104 107.093C29.8716 107.203 29.6756 107.378 29.5161 107.62C29.3612 107.861 29.2427 108.178 29.1606 108.57C29.0786 108.962 29.0376 109.438 29.0376 109.999V111.933C29.0376 112.38 29.0627 112.774 29.1128 113.116C29.1675 113.458 29.2472 113.754 29.3521 114.004C29.4569 114.25 29.5845 114.453 29.7349 114.613C29.8853 114.772 30.0584 114.891 30.2544 114.968C30.4549 115.041 30.6759 115.078 30.9175 115.078C31.2274 115.078 31.4985 115.018 31.731 114.9C31.9634 114.781 32.1571 114.597 32.312 114.346C32.4715 114.091 32.59 113.765 32.6675 113.369C32.745 112.968 32.7837 112.489 32.7837 111.933ZM35.8394 115.31C35.8394 115.096 35.9054 114.916 36.0376 114.77C36.1743 114.62 36.3703 114.544 36.6255 114.544C36.8807 114.544 37.0744 114.62 37.2065 114.77C37.3433 114.916 37.4116 115.096 37.4116 115.31C37.4116 115.52 37.3433 115.697 37.2065 115.843C37.0744 115.989 36.8807 116.062 36.6255 116.062C36.3703 116.062 36.1743 115.989 36.0376 115.843C35.9054 115.697 35.8394 115.52 35.8394 115.31ZM46.1001 112.63V113.669H38.9087V112.924L43.3657 106.027H44.3979L43.2905 108.023L40.3442 112.63H46.1001ZM44.7124 106.027V115.98H43.4478V106.027H44.7124ZM53.6812 106.027V106.738L49.5591 115.98H48.2261L52.3413 107.066H46.9546V106.027H53.6812ZM55.0142 108.467V107.941C55.0142 107.563 55.0962 107.219 55.2603 106.909C55.4243 106.599 55.659 106.35 55.9644 106.164C56.2697 105.977 56.632 105.883 57.0513 105.883C57.4797 105.883 57.8442 105.977 58.145 106.164C58.4504 106.35 58.6851 106.599 58.8491 106.909C59.0132 107.219 59.0952 107.563 59.0952 107.941V108.467C59.0952 108.836 59.0132 109.176 58.8491 109.486C58.6896 109.796 58.4572 110.044 58.1519 110.231C57.8511 110.418 57.4888 110.511 57.0649 110.511C56.6411 110.511 56.2743 110.418 55.9644 110.231C55.659 110.044 55.4243 109.796 55.2603 109.486C55.0962 109.176 55.0142 108.836 55.0142 108.467ZM55.9644 107.941V108.467C55.9644 108.677 56.0031 108.875 56.0806 109.062C56.1626 109.249 56.2856 109.402 56.4497 109.52C56.6138 109.634 56.8188 109.691 57.0649 109.691C57.311 109.691 57.5138 109.634 57.6733 109.52C57.8328 109.402 57.9513 109.249 58.0288 109.062C58.1063 108.875 58.145 108.677 58.145 108.467V107.941C58.145 107.727 58.104 107.526 58.022 107.339C57.9445 107.148 57.8237 106.995 57.6597 106.881C57.5002 106.763 57.2974 106.704 57.0513 106.704C56.8097 106.704 56.6069 106.763 56.4429 106.881C56.2834 106.995 56.1626 107.148 56.0806 107.339C56.0031 107.526 55.9644 107.727 55.9644 107.941ZM59.8608 114.073V113.54C59.8608 113.166 59.9429 112.824 60.1069 112.514C60.271 112.204 60.5057 111.956 60.811 111.769C61.1164 111.582 61.4787 111.489 61.8979 111.489C62.3263 111.489 62.6909 111.582 62.9917 111.769C63.297 111.956 63.5317 112.204 63.6958 112.514C63.8599 112.824 63.9419 113.166 63.9419 113.54V114.073C63.9419 114.446 63.8599 114.788 63.6958 115.098C63.5363 115.408 63.3039 115.656 62.9985 115.843C62.6978 116.03 62.3354 116.124 61.9116 116.124C61.4878 116.124 61.1232 116.03 60.8179 115.843C60.5125 115.656 60.2756 115.408 60.1069 115.098C59.9429 114.788 59.8608 114.446 59.8608 114.073ZM60.811 113.54V114.073C60.811 114.282 60.8498 114.483 60.9272 114.674C61.0093 114.861 61.1323 115.014 61.2964 115.132C61.4604 115.246 61.6655 115.303 61.9116 115.303C62.1577 115.303 62.3605 115.246 62.52 115.132C62.6841 115.014 62.8049 114.861 62.8823 114.674C62.9598 114.487 62.9985 114.287 62.9985 114.073V113.54C62.9985 113.325 62.9575 113.125 62.8755 112.938C62.798 112.751 62.6772 112.601 62.5132 112.487C62.3537 112.368 62.1486 112.309 61.8979 112.309C61.6564 112.309 61.4536 112.368 61.2896 112.487C61.13 112.601 61.0093 112.751 60.9272 112.938C60.8498 113.125 60.811 113.325 60.811 113.54ZM62.2124 107.442L57.3521 115.221L56.6411 114.77L61.5015 106.991L62.2124 107.442Z" fill="white"/>
<path d="M72.7128 112.797V112.742C72.7128 111.948 72.8021 111.229 72.9808 110.588C73.1594 109.942 73.3873 109.377 73.6644 108.892C73.9414 108.408 74.2331 108.007 74.5394 107.689C74.8456 107.369 75.1282 107.137 75.387 106.995L75.6003 107.662C75.3852 107.826 75.1664 108.052 74.944 108.34C74.7253 108.628 74.5229 108.982 74.337 109.401C74.1547 109.82 74.0071 110.307 73.894 110.861C73.781 111.415 73.7245 112.039 73.7245 112.732V112.808C73.7245 113.501 73.781 114.126 73.894 114.684C74.0071 115.238 74.1547 115.727 74.337 116.15C74.5229 116.572 74.7253 116.932 74.944 117.227C75.1664 117.526 75.3852 117.763 75.6003 117.938L75.387 118.55C75.1282 118.408 74.8456 118.177 74.5394 117.856C74.2331 117.539 73.9414 117.138 73.6644 116.653C73.3873 116.171 73.1594 115.608 72.9808 114.963C72.8021 114.317 72.7128 113.596 72.7128 112.797ZM77.9573 111.501H78.6792C79.0328 111.501 79.3245 111.443 79.5542 111.326C79.7875 111.206 79.9607 111.044 80.0737 110.839C80.1904 110.632 80.2487 110.398 80.2487 110.139C80.2487 109.833 80.1977 109.576 80.0956 109.368C79.9935 109.16 79.8404 109.004 79.6362 108.898C79.4321 108.792 79.1732 108.739 78.8597 108.739C78.5753 108.739 78.3237 108.796 78.105 108.909C77.8899 109.018 77.7203 109.175 77.5964 109.379C77.4761 109.583 77.4159 109.824 77.4159 110.101H76.4042C76.4042 109.696 76.5063 109.328 76.7104 108.996C76.9146 108.665 77.2008 108.4 77.569 108.203C77.9409 108.007 78.3711 107.908 78.8597 107.908C79.3409 107.908 79.762 107.994 80.1229 108.165C80.4839 108.333 80.7646 108.584 80.9651 108.92C81.1657 109.252 81.2659 109.665 81.2659 110.161C81.2659 110.362 81.2185 110.577 81.1237 110.807C81.0326 111.033 80.8886 111.244 80.6917 111.441C80.4985 111.638 80.2469 111.8 79.937 111.928C79.6271 112.052 79.2552 112.114 78.8214 112.114H77.9573V111.501ZM77.9573 112.332V111.725H78.8214C79.3282 111.725 79.7474 111.785 80.0792 111.906C80.411 112.026 80.6716 112.186 80.8612 112.387C81.0545 112.588 81.1894 112.808 81.2659 113.049C81.3461 113.286 81.3862 113.523 81.3862 113.76C81.3862 114.132 81.3224 114.461 81.1948 114.75C81.0709 115.038 80.894 115.282 80.6644 115.482C80.4383 115.683 80.1722 115.834 79.8659 115.936C79.5597 116.038 79.2261 116.089 78.8651 116.089C78.5188 116.089 78.1925 116.04 77.8862 115.942C77.5836 115.843 77.3157 115.701 77.0823 115.515C76.849 115.326 76.6667 115.094 76.5354 114.821C76.4042 114.544 76.3386 114.228 76.3386 113.875H77.3503C77.3503 114.152 77.4104 114.394 77.5308 114.602C77.6547 114.81 77.8297 114.972 78.0558 115.089C78.2854 115.202 78.5552 115.258 78.8651 115.258C79.175 115.258 79.4412 115.205 79.6636 115.1C79.8896 114.99 80.0628 114.826 80.1831 114.607C80.3071 114.389 80.369 114.113 80.369 113.782C80.369 113.45 80.2998 113.178 80.1612 112.967C80.0227 112.752 79.8258 112.593 79.5706 112.491C79.319 112.385 79.0219 112.332 78.6792 112.332H77.9573ZM87.7792 111.364V112.578C87.7792 113.231 87.7209 113.782 87.6042 114.23C87.4875 114.678 87.3198 115.039 87.1011 115.313C86.8823 115.586 86.618 115.785 86.3081 115.909C86.0019 116.029 85.6555 116.089 85.269 116.089C84.9628 116.089 84.6802 116.051 84.4214 115.975C84.1625 115.898 83.9292 115.776 83.7214 115.608C83.5172 115.437 83.3422 115.214 83.1964 114.941C83.0506 114.667 82.9394 114.336 82.8628 113.946C82.7862 113.556 82.7479 113.1 82.7479 112.578V111.364C82.7479 110.712 82.8063 110.165 82.9229 109.724C83.0433 109.283 83.2128 108.929 83.4315 108.663C83.6503 108.393 83.9128 108.2 84.219 108.083C84.5289 107.966 84.8753 107.908 85.2581 107.908C85.568 107.908 85.8524 107.946 86.1112 108.023C86.3737 108.096 86.6071 108.214 86.8112 108.378C87.0154 108.539 87.1886 108.754 87.3308 109.024C87.4766 109.29 87.5878 109.616 87.6644 110.003C87.7409 110.389 87.7792 110.843 87.7792 111.364ZM86.762 112.742V111.195C86.762 110.838 86.7401 110.524 86.6964 110.254C86.6563 109.981 86.5961 109.747 86.5159 109.554C86.4357 109.361 86.3336 109.204 86.2097 109.084C86.0894 108.964 85.949 108.876 85.7886 108.821C85.6318 108.763 85.455 108.734 85.2581 108.734C85.0175 108.734 84.8042 108.779 84.6183 108.871C84.4323 108.958 84.2756 109.098 84.1479 109.292C84.024 109.485 83.9292 109.738 83.8636 110.052C83.7979 110.365 83.7651 110.746 83.7651 111.195V112.742C83.7651 113.1 83.7852 113.415 83.8253 113.689C83.869 113.962 83.9328 114.199 84.0167 114.4C84.1006 114.596 84.2026 114.759 84.3229 114.886C84.4433 115.014 84.5818 115.109 84.7386 115.171C84.899 115.229 85.0758 115.258 85.269 115.258C85.517 115.258 85.7339 115.211 85.9198 115.116C86.1058 115.021 86.2607 114.873 86.3847 114.673C86.5123 114.469 86.6071 114.208 86.669 113.891C86.731 113.57 86.762 113.187 86.762 112.742ZM95.6979 114.832V107.58H96.7151V115.98H95.7854L95.6979 114.832ZM91.7167 113.087V112.972C91.7167 112.52 91.7714 112.11 91.8808 111.742C91.9938 111.37 92.1524 111.051 92.3565 110.785C92.5644 110.519 92.8104 110.314 93.0948 110.172C93.3828 110.026 93.7037 109.953 94.0573 109.953C94.4292 109.953 94.7537 110.019 95.0308 110.15C95.3115 110.278 95.5485 110.466 95.7417 110.714C95.9386 110.958 96.0935 111.253 96.2065 111.6C96.3196 111.946 96.3979 112.338 96.4417 112.775V113.278C96.4016 113.712 96.3232 114.102 96.2065 114.449C96.0935 114.795 95.9386 115.09 95.7417 115.335C95.5485 115.579 95.3115 115.767 95.0308 115.898C94.75 116.026 94.4219 116.089 94.0464 116.089C93.7 116.089 93.3828 116.015 93.0948 115.865C92.8104 115.716 92.5644 115.506 92.3565 115.236C92.1524 114.966 91.9938 114.649 91.8808 114.285C91.7714 113.916 91.7167 113.517 91.7167 113.087ZM92.7339 112.972V113.087C92.7339 113.382 92.7631 113.659 92.8214 113.918C92.8834 114.177 92.9782 114.405 93.1058 114.602C93.2334 114.799 93.3956 114.954 93.5925 115.067C93.7894 115.176 94.0245 115.231 94.2979 115.231C94.6334 115.231 94.9086 115.16 95.1237 115.017C95.3425 114.875 95.5175 114.688 95.6487 114.454C95.78 114.221 95.8821 113.967 95.955 113.694V112.376C95.9112 112.176 95.8474 111.982 95.7636 111.796C95.6834 111.607 95.5776 111.439 95.4464 111.293C95.3188 111.144 95.1602 111.025 94.9706 110.938C94.7847 110.85 94.5641 110.807 94.3089 110.807C94.0318 110.807 93.793 110.865 93.5925 110.982C93.3956 111.095 93.2334 111.251 93.1058 111.452C92.9782 111.649 92.8834 111.878 92.8214 112.141C92.7631 112.4 92.7339 112.677 92.7339 112.972ZM101.779 114.968V111.922C101.779 111.689 101.732 111.486 101.637 111.315C101.546 111.14 101.407 111.005 101.221 110.91C101.035 110.816 100.806 110.768 100.532 110.768C100.277 110.768 100.053 110.812 99.8597 110.9C99.6701 110.987 99.5206 111.102 99.4112 111.244C99.3055 111.386 99.2526 111.539 99.2526 111.703H98.2409C98.2409 111.492 98.2956 111.282 98.405 111.075C98.5144 110.867 98.6711 110.679 98.8753 110.511C99.0831 110.34 99.331 110.205 99.619 110.107C99.9107 110.004 100.235 109.953 100.592 109.953C101.023 109.953 101.402 110.026 101.73 110.172C102.062 110.318 102.321 110.539 102.507 110.834C102.696 111.126 102.791 111.492 102.791 111.933V114.689C102.791 114.886 102.807 115.096 102.84 115.318C102.877 115.541 102.929 115.732 102.999 115.892V115.98H101.943C101.892 115.863 101.852 115.708 101.823 115.515C101.794 115.318 101.779 115.136 101.779 114.968ZM101.954 112.392L101.965 113.103H100.942C100.654 113.103 100.397 113.127 100.171 113.175C99.9453 113.218 99.7558 113.286 99.6026 113.377C99.4495 113.468 99.3328 113.583 99.2526 113.721C99.1724 113.856 99.1323 114.015 99.1323 114.197C99.1323 114.383 99.1743 114.553 99.2581 114.706C99.342 114.859 99.4677 114.981 99.6354 115.072C99.8068 115.16 100.016 115.203 100.264 115.203C100.574 115.203 100.848 115.138 101.085 115.007C101.322 114.875 101.509 114.715 101.648 114.525C101.79 114.336 101.867 114.152 101.878 113.973L102.31 114.46C102.284 114.613 102.215 114.782 102.102 114.968C101.989 115.154 101.838 115.333 101.648 115.504C101.462 115.672 101.24 115.812 100.981 115.925C100.726 116.035 100.438 116.089 100.117 116.089C99.7157 116.089 99.3638 116.011 99.0612 115.854C98.7623 115.697 98.5289 115.488 98.3612 115.225C98.1972 114.959 98.1151 114.662 98.1151 114.334C98.1151 114.017 98.1771 113.738 98.3011 113.497C98.425 113.253 98.6037 113.051 98.837 112.89C99.0703 112.726 99.3511 112.602 99.6792 112.518C100.007 112.434 100.374 112.392 100.778 112.392H101.954ZM105.957 115.367L107.603 110.063H108.686L106.313 116.893C106.258 117.039 106.185 117.196 106.094 117.364C106.007 117.535 105.894 117.697 105.755 117.85C105.616 118.003 105.449 118.127 105.252 118.222C105.059 118.321 104.827 118.37 104.557 118.37C104.477 118.37 104.375 118.359 104.251 118.337C104.127 118.315 104.04 118.297 103.989 118.282L103.983 117.462C104.012 117.466 104.058 117.469 104.12 117.473C104.185 117.48 104.231 117.484 104.257 117.484C104.486 117.484 104.681 117.453 104.842 117.391C105.002 117.333 105.137 117.232 105.246 117.09C105.359 116.952 105.456 116.76 105.536 116.516L105.957 115.367ZM104.749 110.063L106.285 114.657L106.548 115.723L105.821 116.095L103.644 110.063H104.749ZM113.045 114.41C113.045 114.265 113.012 114.13 112.946 114.006C112.884 113.878 112.755 113.763 112.558 113.661C112.365 113.556 112.073 113.464 111.683 113.388C111.355 113.319 111.058 113.236 110.792 113.142C110.529 113.047 110.305 112.932 110.119 112.797C109.937 112.662 109.796 112.504 109.698 112.321C109.6 112.139 109.55 111.926 109.55 111.682C109.55 111.448 109.601 111.228 109.703 111.02C109.809 110.812 109.957 110.628 110.146 110.467C110.34 110.307 110.571 110.181 110.841 110.09C111.111 109.999 111.411 109.953 111.743 109.953C112.217 109.953 112.622 110.037 112.957 110.205C113.293 110.373 113.55 110.597 113.728 110.878C113.907 111.155 113.996 111.463 113.996 111.802H112.985C112.985 111.638 112.935 111.479 112.837 111.326C112.742 111.169 112.602 111.04 112.416 110.938C112.234 110.836 112.009 110.785 111.743 110.785C111.463 110.785 111.235 110.828 111.06 110.916C110.888 111 110.763 111.107 110.682 111.239C110.606 111.37 110.567 111.508 110.567 111.654C110.567 111.764 110.586 111.862 110.622 111.95C110.662 112.033 110.732 112.112 110.83 112.185C110.928 112.254 111.067 112.32 111.246 112.382C111.424 112.444 111.652 112.506 111.929 112.567C112.414 112.677 112.813 112.808 113.127 112.961C113.44 113.114 113.674 113.302 113.827 113.525C113.98 113.747 114.057 114.017 114.057 114.334C114.057 114.593 114.002 114.83 113.892 115.045C113.787 115.26 113.632 115.446 113.428 115.603C113.227 115.756 112.986 115.876 112.706 115.964C112.429 116.047 112.117 116.089 111.771 116.089C111.249 116.089 110.808 115.996 110.447 115.81C110.086 115.625 109.813 115.384 109.627 115.089C109.441 114.793 109.348 114.482 109.348 114.153H110.365C110.38 114.431 110.46 114.651 110.606 114.815C110.752 114.976 110.93 115.09 111.142 115.16C111.353 115.225 111.563 115.258 111.771 115.258C112.048 115.258 112.279 115.222 112.465 115.149C112.655 115.076 112.799 114.976 112.897 114.848C112.996 114.72 113.045 114.575 113.045 114.41ZM117.715 112.742V112.797C117.715 113.596 117.626 114.317 117.447 114.963C117.269 115.608 117.041 116.171 116.764 116.653C116.486 117.138 116.195 117.539 115.889 117.856C115.582 118.177 115.3 118.408 115.041 118.55L114.828 117.938C115.043 117.774 115.26 117.544 115.478 117.249C115.697 116.957 115.9 116.596 116.085 116.166C116.271 115.739 116.421 115.247 116.534 114.689C116.647 114.128 116.703 113.501 116.703 112.808V112.732C116.703 112.039 116.643 111.414 116.523 110.856C116.403 110.294 116.246 109.8 116.053 109.374C115.863 108.947 115.659 108.588 115.44 108.296C115.225 108.001 115.021 107.773 114.828 107.613L115.041 106.995C115.3 107.137 115.582 107.369 115.889 107.689C116.195 108.007 116.486 108.408 116.764 108.892C117.041 109.377 117.269 109.942 117.447 110.588C117.626 111.229 117.715 111.948 117.715 112.742Z" fill="white"/>
</g>
<defs>
<filter id="filter0_d_101_22" x="0" y="0" width="392.25" height="159.78" filterUnits="userSpaceOnUse" color-interpolation-filters="sRGB">
<feFlood flood-opacity="0" result="BackgroundImageFix"/>
<feColorMatrix in="SourceAlpha" type="matrix" values="0 0 0 0 0 0 0 0 0 0 0 0 0 0 0 0 0 0 127 0" result="hardAlpha"/>
<feMorphology radius="2" operator="erode" in="SourceAlpha" result="effect1_dropShadow_101_22"/>
<feOffset dx="4" dy="8"/>
<feGaussianBlur stdDeviation="4.5"/>
<feComposite in2="hardAlpha" operator="out"/>
<feColorMatrix type="matrix" values="0 0 0 0 0.780392 0 0 0 0 0.772549 0 0 0 0 0.847059 0 0 0 1 0"/>
<feBlend mode="normal" in2="BackgroundImageFix" result="effect1_dropShadow_101_22"/>
<feBlend mode="normal" in="SourceGraphic" in2="effect1_dropShadow_101_22" result="shape"/>
</filter>
<clipPath id="clip0_101_22">
<rect width="32" height="32" fill="white" transform="matrix(1 0 0 -1 325.27 92.98)"/>
</clipPath>
</defs>
</svg>
