<svg width="393" height="160" viewBox="0 0 393 160" fill="none" xmlns="http://www.w3.org/2000/svg">
<g filter="url(#filter0_d_101_44)">
<rect x="3.5" width="378.25" height="144.78" fill="#8EB0FF"/>
<rect x="4" y="0.5" width="377.25" height="143.78" stroke="white"/>
<path d="M28.4917 26.0469H32.0122C32.7687 26.0469 33.4136 26.1608 33.9468 26.3887C34.48 26.6165 34.8879 26.9538 35.1704 27.4004C35.4575 27.8424 35.6011 28.3893 35.6011 29.041C35.6011 29.5378 35.5099 29.9753 35.3276 30.3535C35.1453 30.7318 34.8879 31.0508 34.5552 31.3105C34.2225 31.5658 33.826 31.764 33.3657 31.9053L32.8462 32.1582H29.6812L29.6675 30.7979H32.0396C32.4497 30.7979 32.7915 30.7249 33.0649 30.5791C33.3384 30.4333 33.5435 30.235 33.6802 29.9844C33.8215 29.7292 33.8921 29.4421 33.8921 29.123C33.8921 28.7767 33.8237 28.4759 33.687 28.2207C33.5549 27.9609 33.3498 27.7627 33.0718 27.626C32.7938 27.4847 32.4406 27.4141 32.0122 27.4141H30.2075V36H28.4917V26.0469ZM34.1724 36L31.8345 31.5293L33.6323 31.5225L36.0044 35.9111V36H34.1724ZM43.8247 34.6396V36H38.5405V34.6396H43.8247ZM39.0259 26.0469V36H37.3101V26.0469H39.0259ZM43.1343 30.2031V31.543H38.5405V30.2031H43.1343ZM43.7905 26.0469V27.4141H38.5405V26.0469H43.7905ZM49.4575 26.0469V36H47.7554V26.0469H49.4575ZM52.5815 26.0469V27.4141H44.6587V26.0469H52.5815ZM59.479 26.0469H61.188V32.6982C61.188 33.4548 61.0239 34.0882 60.6958 34.5986C60.3677 35.109 59.9211 35.4941 59.356 35.7539C58.7954 36.0091 58.1688 36.1367 57.4761 36.1367C56.7606 36.1367 56.1226 36.0091 55.562 35.7539C55.0015 35.4941 54.5594 35.109 54.2358 34.5986C53.9168 34.0882 53.7573 33.4548 53.7573 32.6982V26.0469H55.4663V32.6982C55.4663 33.1768 55.5483 33.571 55.7124 33.8809C55.8765 34.1862 56.1089 34.4118 56.4097 34.5576C56.7104 34.7035 57.0659 34.7764 57.4761 34.7764C57.8862 34.7764 58.2394 34.7035 58.5356 34.5576C58.8364 34.4118 59.0688 34.1862 59.2329 33.8809C59.397 33.571 59.479 33.1768 59.479 32.6982V26.0469ZM63.0542 26.0469H66.5747C67.3312 26.0469 67.9761 26.1608 68.5093 26.3887C69.0425 26.6165 69.4504 26.9538 69.7329 27.4004C70.02 27.8424 70.1636 28.3893 70.1636 29.041C70.1636 29.5378 70.0724 29.9753 69.8901 30.3535C69.7078 30.7318 69.4504 31.0508 69.1177 31.3105C68.785 31.5658 68.3885 31.764 67.9282 31.9053L67.4087 32.1582H64.2437L64.23 30.7979H66.6021C67.0122 30.7979 67.354 30.7249 67.6274 30.5791C67.9009 30.4333 68.106 30.235 68.2427 29.9844C68.384 29.7292 68.4546 29.4421 68.4546 29.123C68.4546 28.7767 68.3862 28.4759 68.2495 28.2207C68.1174 27.9609 67.9123 27.7627 67.6343 27.626C67.3563 27.4847 67.0031 27.4141 66.5747 27.4141H64.77V36H63.0542V26.0469ZM68.7349 36L66.397 31.5293L68.1948 31.5225L70.5669 35.9111V36H68.7349ZM79.7681 26.0469V36H78.0522L73.5884 28.8701V36H71.8726V26.0469H73.5884L78.0659 33.1904V26.0469H79.7681ZM87.0483 33.4365C87.0483 33.2314 87.0164 33.0492 86.9526 32.8896C86.8934 32.7301 86.7863 32.5843 86.6313 32.4521C86.4764 32.32 86.2576 32.1924 85.9751 32.0693C85.6971 31.9417 85.3416 31.8118 84.9087 31.6797C84.4347 31.5339 83.9972 31.3721 83.5962 31.1943C83.1997 31.012 82.8534 30.8024 82.5571 30.5654C82.2609 30.3239 82.0308 30.0482 81.8667 29.7383C81.7026 29.4238 81.6206 29.0615 81.6206 28.6514C81.6206 28.2458 81.7049 27.8766 81.8735 27.5439C82.0467 27.2113 82.2905 26.9242 82.605 26.6826C82.924 26.4365 83.3 26.2474 83.7329 26.1152C84.1659 25.9785 84.6444 25.9102 85.1685 25.9102C85.9067 25.9102 86.5425 26.0469 87.0757 26.3203C87.6134 26.5938 88.0259 26.9606 88.313 27.4209C88.6047 27.8812 88.7505 28.3893 88.7505 28.9453H87.0483C87.0483 28.6172 86.9777 28.3278 86.8364 28.0771C86.6997 27.8219 86.4901 27.6214 86.2075 27.4756C85.9295 27.3298 85.5763 27.2568 85.1479 27.2568C84.7424 27.2568 84.4051 27.3184 84.1362 27.4414C83.8674 27.5645 83.6668 27.7308 83.5347 27.9404C83.4025 28.1501 83.3364 28.387 83.3364 28.6514C83.3364 28.8382 83.3797 29.0091 83.4663 29.1641C83.5529 29.3145 83.6851 29.4557 83.8628 29.5879C84.0405 29.7155 84.2638 29.8363 84.5327 29.9502C84.8016 30.0641 85.1183 30.1735 85.4829 30.2783C86.0343 30.4424 86.5151 30.6247 86.9253 30.8252C87.3354 31.0212 87.6772 31.2445 87.9507 31.4951C88.2241 31.7458 88.4292 32.0306 88.5659 32.3496C88.7026 32.6641 88.771 33.0218 88.771 33.4229C88.771 33.8421 88.6867 34.2204 88.5181 34.5576C88.3494 34.8903 88.1079 35.1751 87.7935 35.4121C87.4836 35.6445 87.1099 35.8245 86.6724 35.9521C86.2394 36.0752 85.7563 36.1367 85.2231 36.1367C84.7446 36.1367 84.2729 36.0729 83.8081 35.9453C83.3478 35.8177 82.9285 35.624 82.5503 35.3643C82.172 35.0999 81.8713 34.7718 81.6479 34.3799C81.4246 33.9834 81.313 33.5208 81.313 32.9922H83.0288C83.0288 33.3158 83.0835 33.5915 83.1929 33.8193C83.3068 34.0472 83.464 34.234 83.6646 34.3799C83.8651 34.5212 84.0975 34.626 84.3618 34.6943C84.6307 34.7627 84.9178 34.7969 85.2231 34.7969C85.6242 34.7969 85.9591 34.7399 86.228 34.626C86.5015 34.512 86.7065 34.3525 86.8433 34.1475C86.98 33.9424 87.0483 33.7054 87.0483 33.4365Z" fill="white"/>
<path d="M39.7554 65.52H40.1948V68.4058H39.9458C38.686 68.4058 37.5972 68.6011 36.6792 68.9917C35.771 69.3823 35.0239 69.9194 34.438 70.603C33.8521 71.2866 33.4126 72.0874 33.1196 73.0054C32.8364 73.9136 32.6948 74.8804 32.6948 75.9058V79.2603C32.6948 80.1099 32.7876 80.8618 32.9731 81.5161C33.1587 82.1606 33.4175 82.7026 33.7495 83.1421C34.0913 83.5718 34.4819 83.8989 34.9214 84.1235C35.3608 84.3481 35.8345 84.4604 36.3423 84.4604C36.8696 84.4604 37.3481 84.353 37.7778 84.1382C38.2075 83.9136 38.5737 83.606 38.8765 83.2153C39.1792 82.8247 39.4087 82.3608 39.5649 81.8237C39.7212 81.2866 39.7993 80.7007 39.7993 80.0659C39.7993 79.4604 39.7212 78.894 39.5649 78.3667C39.4185 77.8296 39.1987 77.3608 38.9058 76.9604C38.6128 76.5503 38.2466 76.2329 37.8071 76.0083C37.3774 75.7739 36.8794 75.6567 36.313 75.6567C35.6099 75.6567 34.9702 75.8228 34.394 76.1548C33.8276 76.4868 33.3687 76.9214 33.0171 77.4585C32.6753 77.9858 32.4897 78.5474 32.4604 79.1431L31.1128 78.7036C31.1909 77.7954 31.3911 76.98 31.7134 76.2573C32.0454 75.5347 32.48 74.9194 33.0171 74.4116C33.5542 73.9038 34.1743 73.5181 34.8774 73.2544C35.5903 72.981 36.3716 72.8442 37.2212 72.8442C38.2563 72.8442 39.1548 73.0396 39.9165 73.4302C40.6782 73.8208 41.3081 74.353 41.8062 75.0269C42.314 75.6909 42.6899 76.4526 42.9341 77.312C43.188 78.1616 43.3149 79.0503 43.3149 79.978C43.3149 81.0034 43.1587 81.9604 42.8462 82.8491C42.5337 83.728 42.0747 84.4995 41.4692 85.1636C40.8735 85.8276 40.146 86.3452 39.2866 86.7163C38.437 87.0874 37.4702 87.2729 36.3862 87.2729C35.2437 87.2729 34.2231 87.0532 33.3247 86.6138C32.436 86.1743 31.6792 85.5688 31.0542 84.7974C30.439 84.0259 29.9702 83.1372 29.6479 82.1313C29.3257 81.1255 29.1646 80.061 29.1646 78.938V77.4731C29.1646 75.8521 29.3696 74.3237 29.7798 72.8882C30.1899 71.4429 30.8198 70.1685 31.6694 69.0649C32.5288 67.9614 33.6274 67.0972 34.9653 66.4722C36.3032 65.8374 37.8999 65.52 39.7554 65.52ZM55.7808 65.5786V86.98H52.2505V69.7681L47.021 71.5405V68.6255L55.356 65.5786H55.7808ZM67.3384 74.7192H69.4478C70.2681 74.7192 70.9468 74.5776 71.4839 74.2944C72.0308 74.0112 72.436 73.6206 72.6997 73.1226C72.9634 72.6245 73.0952 72.0532 73.0952 71.4087C73.0952 70.7349 72.9731 70.1587 72.729 69.6802C72.4946 69.1919 72.1333 68.8159 71.645 68.5522C71.1665 68.2886 70.5562 68.1567 69.814 68.1567C69.189 68.1567 68.6226 68.2837 68.1147 68.5376C67.6167 68.7817 67.2212 69.1333 66.9282 69.5923C66.6353 70.0415 66.4888 70.5786 66.4888 71.2036H62.9438C62.9438 70.0708 63.2417 69.0649 63.8374 68.186C64.4331 67.3071 65.2437 66.6187 66.269 66.1206C67.3042 65.6128 68.4663 65.3589 69.7554 65.3589C71.1323 65.3589 72.3335 65.5884 73.3589 66.0474C74.394 66.4966 75.1997 67.1704 75.7759 68.0688C76.3521 68.9673 76.6401 70.0806 76.6401 71.4087C76.6401 72.0142 76.4985 72.6294 76.2153 73.2544C75.9321 73.8794 75.5122 74.4507 74.9556 74.9683C74.3989 75.4761 73.7056 75.8911 72.8755 76.2134C72.0454 76.5259 71.0835 76.6821 69.9897 76.6821H67.3384V74.7192ZM67.3384 77.4731V75.5396H69.9897C71.2397 75.5396 72.3042 75.686 73.1831 75.979C74.0718 76.272 74.7944 76.6772 75.3511 77.1948C75.9077 77.7026 76.313 78.2837 76.5669 78.938C76.8306 79.5923 76.9624 80.2856 76.9624 81.0181C76.9624 82.0142 76.7817 82.9028 76.4204 83.6841C76.0688 84.4556 75.5659 85.1099 74.9116 85.647C74.2573 86.1841 73.4907 86.5894 72.6118 86.8628C71.7427 87.1362 70.7954 87.2729 69.77 87.2729C68.8521 87.2729 67.9731 87.146 67.1333 86.8921C66.2935 86.6382 65.5415 86.2622 64.8774 85.7642C64.2134 85.2563 63.686 84.6265 63.2954 83.8745C62.9146 83.1128 62.7241 82.2339 62.7241 81.2378H66.2544C66.2544 81.8726 66.4009 82.4341 66.6938 82.9224C66.9966 83.4009 67.4165 83.7769 67.9536 84.0503C68.5005 84.3237 69.1255 84.4604 69.8286 84.4604C70.5708 84.4604 71.2104 84.3286 71.7476 84.0649C72.2847 83.8013 72.6948 83.4106 72.978 82.8931C73.271 82.3755 73.4175 81.7505 73.4175 81.0181C73.4175 80.188 73.2563 79.5142 72.9341 78.9966C72.6118 78.479 72.1528 78.0981 71.5571 77.854C70.9614 77.6001 70.2583 77.4731 69.4478 77.4731H67.3384ZM94.936 79.3774V82.1899H79.5552L79.438 80.0659L88.6372 65.6519H91.4644L88.4028 70.896L83.1147 79.3774H94.936ZM92.27 65.6519V86.98H88.7397V65.6519H92.27ZM111.987 79.3774V82.1899H96.606L96.4888 80.0659L105.688 65.6519H108.515L105.454 70.896L100.166 79.3774H111.987ZM109.321 65.6519V86.98H105.791V65.6519H109.321Z" fill="white"/>
<g clip-path="url(#clip0_101_44)">
<path d="M346.458 62.855H325.77V79.7925H346.458V62.855ZM344.583 77.9175H327.645V64.73H344.583V77.9175ZM352.145 85.48H331.395V81.73H333.27V83.5425H350.27V70.4175H348.395V68.48H352.145V85.48ZM357.77 74.1675V91.105H337.083V87.355H338.958V89.23H355.895V76.0425H354.02V74.1675H357.77Z" fill="white"/>
</g>
<path d="M34.8286 114.941V115.98H28.314V115.071L31.5747 111.441C31.9757 110.994 32.2856 110.616 32.5044 110.306C32.7277 109.992 32.8826 109.711 32.9692 109.465C33.0604 109.215 33.106 108.959 33.106 108.7C33.106 108.372 33.0376 108.075 32.9009 107.811C32.7687 107.542 32.5728 107.328 32.313 107.168C32.0532 107.009 31.7388 106.929 31.3696 106.929C30.9276 106.929 30.5584 107.016 30.2622 107.189C29.9705 107.358 29.7518 107.595 29.606 107.9C29.4601 108.205 29.3872 108.556 29.3872 108.953H28.1226C28.1226 108.392 28.2456 107.879 28.4917 107.415C28.7378 106.95 29.1024 106.581 29.5854 106.307C30.0685 106.029 30.6632 105.89 31.3696 105.89C31.9985 105.89 32.5363 106.002 32.9829 106.225C33.4295 106.444 33.7713 106.754 34.0083 107.155C34.2498 107.551 34.3706 108.016 34.3706 108.549C34.3706 108.841 34.3205 109.137 34.2202 109.438C34.1245 109.734 33.9901 110.03 33.8169 110.327C33.6483 110.623 33.45 110.915 33.2222 111.202C32.9989 111.489 32.7596 111.771 32.5044 112.049L29.8384 114.941H34.8286ZM38.0278 110.381H38.9302C39.3722 110.381 39.7368 110.308 40.0239 110.163C40.3156 110.012 40.5321 109.809 40.6733 109.554C40.8192 109.294 40.8921 109.003 40.8921 108.679C40.8921 108.296 40.8283 107.975 40.7007 107.715C40.5731 107.456 40.3817 107.26 40.1265 107.127C39.8713 106.995 39.5477 106.929 39.1558 106.929C38.8003 106.929 38.4858 107 38.2124 107.141C37.9435 107.278 37.7316 107.474 37.5767 107.729C37.4263 107.984 37.3511 108.285 37.3511 108.631H36.0864C36.0864 108.125 36.214 107.665 36.4692 107.25C36.7244 106.836 37.0822 106.505 37.5425 106.259C38.0073 106.013 38.5451 105.89 39.1558 105.89C39.7573 105.89 40.2837 105.997 40.7349 106.211C41.186 106.421 41.5369 106.736 41.7876 107.155C42.0382 107.569 42.1636 108.087 42.1636 108.707C42.1636 108.957 42.1043 109.226 41.9858 109.513C41.8719 109.796 41.6919 110.06 41.4458 110.306C41.2043 110.552 40.8898 110.755 40.5024 110.915C40.1151 111.069 39.6502 111.147 39.1079 111.147H38.0278V110.381ZM38.0278 111.42V110.662H39.1079C39.7414 110.662 40.2655 110.737 40.6802 110.887C41.0949 111.038 41.4207 111.238 41.6577 111.489C41.8993 111.739 42.0679 112.015 42.1636 112.316C42.2638 112.612 42.314 112.908 42.314 113.205C42.314 113.669 42.2342 114.082 42.0747 114.442C41.9198 114.802 41.6987 115.107 41.4116 115.358C41.1291 115.609 40.7964 115.798 40.4136 115.925C40.0308 116.053 39.6138 116.117 39.1626 116.117C38.7297 116.117 38.3218 116.055 37.939 115.932C37.5607 115.809 37.2257 115.631 36.9341 115.399C36.6424 115.162 36.4146 114.873 36.2505 114.531C36.0864 114.184 36.0044 113.79 36.0044 113.348H37.269C37.269 113.694 37.3442 113.998 37.4946 114.257C37.6496 114.517 37.8683 114.72 38.1509 114.866C38.438 115.007 38.7752 115.078 39.1626 115.078C39.55 115.078 39.8826 115.012 40.1606 114.879C40.4432 114.743 40.6597 114.538 40.8101 114.264C40.965 113.991 41.0425 113.647 41.0425 113.232C41.0425 112.817 40.9559 112.478 40.7827 112.213C40.6095 111.944 40.3634 111.746 40.0444 111.619C39.73 111.486 39.3586 111.42 38.9302 111.42H38.0278ZM44.2144 115.31C44.2144 115.096 44.2804 114.916 44.4126 114.77C44.5493 114.62 44.7453 114.544 45.0005 114.544C45.2557 114.544 45.4494 114.62 45.5815 114.77C45.7183 114.916 45.7866 115.096 45.7866 115.31C45.7866 115.52 45.7183 115.697 45.5815 115.843C45.4494 115.989 45.2557 116.062 45.0005 116.062C44.7453 116.062 44.5493 115.989 44.4126 115.843C44.2804 115.697 44.2144 115.52 44.2144 115.31ZM53.9966 110.21V111.728C53.9966 112.544 53.9237 113.232 53.7778 113.792C53.632 114.353 53.4224 114.804 53.1489 115.146C52.8755 115.488 52.5451 115.736 52.1577 115.891C51.7749 116.042 51.342 116.117 50.8589 116.117C50.4761 116.117 50.1229 116.069 49.7993 115.973C49.4757 115.877 49.1841 115.725 48.9243 115.515C48.6691 115.301 48.4504 115.023 48.2681 114.681C48.0858 114.339 47.9468 113.925 47.8511 113.437C47.7554 112.949 47.7075 112.38 47.7075 111.728V110.21C47.7075 109.395 47.7804 108.711 47.9263 108.16C48.0767 107.608 48.2886 107.166 48.562 106.833C48.8354 106.496 49.1636 106.255 49.5464 106.109C49.9338 105.963 50.3667 105.89 50.8452 105.89C51.2326 105.89 51.5881 105.938 51.9116 106.034C52.2397 106.125 52.5314 106.273 52.7866 106.478C53.0418 106.679 53.2583 106.947 53.436 107.285C53.6183 107.617 53.7573 108.025 53.853 108.508C53.9487 108.991 53.9966 109.559 53.9966 110.21ZM52.7251 111.933V109.999C52.7251 109.552 52.6978 109.16 52.6431 108.823C52.5929 108.481 52.5177 108.189 52.4175 107.948C52.3172 107.706 52.1896 107.51 52.0347 107.36C51.8843 107.209 51.7088 107.1 51.5083 107.032C51.3123 106.959 51.0913 106.922 50.8452 106.922C50.5444 106.922 50.2778 106.979 50.0454 107.093C49.813 107.203 49.617 107.378 49.4575 107.62C49.3026 107.861 49.1841 108.178 49.1021 108.57C49.02 108.962 48.979 109.438 48.979 109.999V111.933C48.979 112.38 49.0041 112.774 49.0542 113.116C49.1089 113.458 49.1886 113.754 49.2935 114.004C49.3983 114.25 49.5259 114.453 49.6763 114.613C49.8267 114.772 49.9998 114.891 50.1958 114.968C50.3963 115.041 50.6174 115.078 50.8589 115.078C51.1688 115.078 51.4399 115.018 51.6724 114.9C51.9048 114.781 52.0985 114.597 52.2534 114.346C52.4129 114.091 52.5314 113.765 52.6089 113.369C52.6864 112.968 52.7251 112.489 52.7251 111.933ZM61.8716 110.21V111.728C61.8716 112.544 61.7987 113.232 61.6528 113.792C61.507 114.353 61.2974 114.804 61.0239 115.146C60.7505 115.488 60.4201 115.736 60.0327 115.891C59.6499 116.042 59.217 116.117 58.7339 116.117C58.3511 116.117 57.9979 116.069 57.6743 115.973C57.3507 115.877 57.0591 115.725 56.7993 115.515C56.5441 115.301 56.3254 115.023 56.1431 114.681C55.9608 114.339 55.8218 113.925 55.7261 113.437C55.6304 112.949 55.5825 112.38 55.5825 111.728V110.21C55.5825 109.395 55.6554 108.711 55.8013 108.16C55.9517 107.608 56.1636 107.166 56.437 106.833C56.7104 106.496 57.0386 106.255 57.4214 106.109C57.8088 105.963 58.2417 105.89 58.7202 105.89C59.1076 105.89 59.4631 105.938 59.7866 106.034C60.1147 106.125 60.4064 106.273 60.6616 106.478C60.9168 106.679 61.1333 106.947 61.311 107.285C61.4933 107.617 61.6323 108.025 61.728 108.508C61.8237 108.991 61.8716 109.559 61.8716 110.21ZM60.6001 111.933V109.999C60.6001 109.552 60.5728 109.16 60.5181 108.823C60.4679 108.481 60.3927 108.189 60.2925 107.948C60.1922 107.706 60.0646 107.51 59.9097 107.36C59.7593 107.209 59.5838 107.1 59.3833 107.032C59.1873 106.959 58.9663 106.922 58.7202 106.922C58.4194 106.922 58.1528 106.979 57.9204 107.093C57.688 107.203 57.492 107.378 57.3325 107.62C57.1776 107.861 57.0591 108.178 56.9771 108.57C56.895 108.962 56.854 109.438 56.854 109.999V111.933C56.854 112.38 56.8791 112.774 56.9292 113.116C56.9839 113.458 57.0636 113.754 57.1685 114.004C57.2733 114.25 57.4009 114.453 57.5513 114.613C57.7017 114.772 57.8748 114.891 58.0708 114.968C58.2713 115.041 58.4924 115.078 58.7339 115.078C59.0438 115.078 59.3149 115.018 59.5474 114.9C59.7798 114.781 59.9735 114.597 60.1284 114.346C60.2879 114.091 60.4064 113.765 60.4839 113.369C60.5614 112.968 60.6001 112.489 60.6001 111.933ZM63.3892 108.467V107.941C63.3892 107.563 63.4712 107.219 63.6353 106.909C63.7993 106.599 64.034 106.35 64.3394 106.164C64.6447 105.977 65.007 105.883 65.4263 105.883C65.8547 105.883 66.2192 105.977 66.52 106.164C66.8254 106.35 67.0601 106.599 67.2241 106.909C67.3882 107.219 67.4702 107.563 67.4702 107.941V108.467C67.4702 108.836 67.3882 109.176 67.2241 109.486C67.0646 109.796 66.8322 110.044 66.5269 110.231C66.2261 110.418 65.8638 110.511 65.4399 110.511C65.0161 110.511 64.6493 110.418 64.3394 110.231C64.034 110.044 63.7993 109.796 63.6353 109.486C63.4712 109.176 63.3892 108.836 63.3892 108.467ZM64.3394 107.941V108.467C64.3394 108.677 64.3781 108.875 64.4556 109.062C64.5376 109.249 64.6606 109.402 64.8247 109.52C64.9888 109.634 65.1938 109.691 65.4399 109.691C65.686 109.691 65.8888 109.634 66.0483 109.52C66.2078 109.402 66.3263 109.249 66.4038 109.062C66.4813 108.875 66.52 108.677 66.52 108.467V107.941C66.52 107.727 66.479 107.526 66.397 107.339C66.3195 107.148 66.1987 106.995 66.0347 106.881C65.8752 106.763 65.6724 106.704 65.4263 106.704C65.1847 106.704 64.9819 106.763 64.8179 106.881C64.6584 106.995 64.5376 107.148 64.4556 107.339C64.3781 107.526 64.3394 107.727 64.3394 107.941ZM68.2358 114.073V113.54C68.2358 113.166 68.3179 112.824 68.4819 112.514C68.646 112.204 68.8807 111.956 69.186 111.769C69.4914 111.582 69.8537 111.489 70.2729 111.489C70.7013 111.489 71.0659 111.582 71.3667 111.769C71.672 111.956 71.9067 112.204 72.0708 112.514C72.2349 112.824 72.3169 113.166 72.3169 113.54V114.073C72.3169 114.446 72.2349 114.788 72.0708 115.098C71.9113 115.408 71.6789 115.656 71.3735 115.843C71.0728 116.03 70.7104 116.124 70.2866 116.124C69.8628 116.124 69.4982 116.03 69.1929 115.843C68.8875 115.656 68.6506 115.408 68.4819 115.098C68.3179 114.788 68.2358 114.446 68.2358 114.073ZM69.186 113.54V114.073C69.186 114.282 69.2248 114.483 69.3022 114.674C69.3843 114.861 69.5073 115.014 69.6714 115.132C69.8354 115.246 70.0405 115.303 70.2866 115.303C70.5327 115.303 70.7355 115.246 70.895 115.132C71.0591 115.014 71.1799 114.861 71.2573 114.674C71.3348 114.487 71.3735 114.287 71.3735 114.073V113.54C71.3735 113.325 71.3325 113.125 71.2505 112.938C71.173 112.751 71.0522 112.601 70.8882 112.487C70.7287 112.368 70.5236 112.309 70.2729 112.309C70.0314 112.309 69.8286 112.368 69.6646 112.487C69.505 112.601 69.3843 112.751 69.3022 112.938C69.2248 113.125 69.186 113.325 69.186 113.54ZM70.5874 107.442L65.7271 115.221L65.0161 114.77L69.8765 106.991L70.5874 107.442Z" fill="white"/>
<path d="M77.6127 112.797V112.742C77.6127 111.948 77.702 111.229 77.8807 110.588C78.0593 109.942 78.2872 109.377 78.5643 108.892C78.8413 108.408 79.133 108.007 79.4393 107.689C79.7455 107.369 80.0281 107.137 80.2869 106.995L80.5002 107.662C80.2851 107.826 80.0663 108.052 79.8439 108.34C79.6252 108.628 79.4229 108.982 79.2369 109.401C79.0546 109.82 78.907 110.307 78.7939 110.861C78.6809 111.415 78.6244 112.039 78.6244 112.732V112.808C78.6244 113.501 78.6809 114.126 78.7939 114.684C78.907 115.238 79.0546 115.727 79.2369 116.15C79.4229 116.572 79.6252 116.932 79.8439 117.227C80.0663 117.526 80.2851 117.763 80.5002 117.938L80.2869 118.55C80.0281 118.408 79.7455 118.177 79.4393 117.856C79.133 117.539 78.8413 117.138 78.5643 116.653C78.2872 116.171 78.0593 115.608 77.8807 114.963C77.702 114.317 77.6127 113.596 77.6127 112.797ZM82.8572 111.501H83.5791C83.9327 111.501 84.2244 111.443 84.4541 111.326C84.6874 111.206 84.8606 111.044 84.9736 110.839C85.0903 110.632 85.1486 110.398 85.1486 110.139C85.1486 109.833 85.0976 109.576 84.9955 109.368C84.8934 109.16 84.7403 109.004 84.5361 108.898C84.332 108.792 84.0731 108.739 83.7596 108.739C83.4752 108.739 83.2236 108.796 83.0049 108.909C82.7898 109.018 82.6202 109.175 82.4963 109.379C82.376 109.583 82.3158 109.824 82.3158 110.101H81.3041C81.3041 109.696 81.4062 109.328 81.6104 108.996C81.8145 108.665 82.1007 108.4 82.4689 108.203C82.8408 108.007 83.271 107.908 83.7596 107.908C84.2408 107.908 84.6619 107.994 85.0229 108.165C85.3838 108.333 85.6645 108.584 85.865 108.92C86.0656 109.252 86.1658 109.665 86.1658 110.161C86.1658 110.362 86.1184 110.577 86.0236 110.807C85.9325 111.033 85.7885 111.244 85.5916 111.441C85.3984 111.638 85.1468 111.8 84.8369 111.928C84.527 112.052 84.1551 112.114 83.7213 112.114H82.8572V111.501ZM82.8572 112.332V111.725H83.7213C84.2281 111.725 84.6473 111.785 84.9791 111.906C85.3109 112.026 85.5715 112.186 85.7611 112.387C85.9544 112.588 86.0893 112.808 86.1658 113.049C86.246 113.286 86.2861 113.523 86.2861 113.76C86.2861 114.132 86.2223 114.461 86.0947 114.75C85.9708 115.038 85.7939 115.282 85.5643 115.482C85.3382 115.683 85.0721 115.834 84.7658 115.936C84.4596 116.038 84.126 116.089 83.765 116.089C83.4187 116.089 83.0924 116.04 82.7861 115.942C82.4835 115.843 82.2156 115.701 81.9822 115.515C81.7489 115.326 81.5666 115.094 81.4354 114.821C81.3041 114.544 81.2385 114.228 81.2385 113.875H82.2502C82.2502 114.152 82.3104 114.394 82.4307 114.602C82.5546 114.81 82.7296 114.972 82.9557 115.089C83.1854 115.202 83.4551 115.258 83.765 115.258C84.0749 115.258 84.3411 115.205 84.5635 115.1C84.7895 114.99 84.9627 114.826 85.083 114.607C85.207 114.389 85.2689 114.113 85.2689 113.782C85.2689 113.45 85.1997 113.178 85.0611 112.967C84.9226 112.752 84.7257 112.593 84.4705 112.491C84.2189 112.385 83.9218 112.332 83.5791 112.332H82.8572ZM92.6791 111.364V112.578C92.6791 113.231 92.6208 113.782 92.5041 114.23C92.3874 114.678 92.2197 115.039 92.001 115.313C91.7822 115.586 91.5179 115.785 91.208 115.909C90.9018 116.029 90.5554 116.089 90.1689 116.089C89.8627 116.089 89.5801 116.051 89.3213 115.975C89.0624 115.898 88.8291 115.776 88.6213 115.608C88.4171 115.437 88.2421 115.214 88.0963 114.941C87.9505 114.667 87.8393 114.336 87.7627 113.946C87.6861 113.556 87.6479 113.1 87.6479 112.578V111.364C87.6479 110.712 87.7062 110.165 87.8229 109.724C87.9432 109.283 88.1127 108.929 88.3314 108.663C88.5502 108.393 88.8127 108.2 89.1189 108.083C89.4288 107.966 89.7752 107.908 90.158 107.908C90.4679 107.908 90.7523 107.946 91.0111 108.023C91.2736 108.096 91.507 108.214 91.7111 108.378C91.9153 108.539 92.0885 108.754 92.2307 109.024C92.3765 109.29 92.4877 109.616 92.5643 110.003C92.6408 110.389 92.6791 110.843 92.6791 111.364ZM91.6619 112.742V111.195C91.6619 110.838 91.64 110.524 91.5963 110.254C91.5562 109.981 91.496 109.747 91.4158 109.554C91.3356 109.361 91.2335 109.204 91.1096 109.084C90.9893 108.964 90.8489 108.876 90.6885 108.821C90.5317 108.763 90.3549 108.734 90.158 108.734C89.9174 108.734 89.7041 108.779 89.5182 108.871C89.3322 108.958 89.1755 109.098 89.0479 109.292C88.9239 109.485 88.8291 109.738 88.7635 110.052C88.6979 110.365 88.665 110.746 88.665 111.195V112.742C88.665 113.1 88.6851 113.415 88.7252 113.689C88.7689 113.962 88.8327 114.199 88.9166 114.4C89.0005 114.596 89.1025 114.759 89.2229 114.886C89.3432 115.014 89.4817 115.109 89.6385 115.171C89.7989 115.229 89.9757 115.258 90.1689 115.258C90.4169 115.258 90.6338 115.211 90.8197 115.116C91.0057 115.021 91.1606 114.873 91.2846 114.673C91.4122 114.469 91.507 114.208 91.5689 113.891C91.6309 113.57 91.6619 113.187 91.6619 112.742ZM100.598 114.832V107.58H101.615V115.98H100.685L100.598 114.832ZM96.6166 113.087V112.972C96.6166 112.52 96.6713 112.11 96.7807 111.742C96.8937 111.37 97.0523 111.051 97.2564 110.785C97.4643 110.519 97.7104 110.314 97.9947 110.172C98.2827 110.026 98.6036 109.953 98.9572 109.953C99.3291 109.953 99.6536 110.019 99.9307 110.15C100.211 110.278 100.448 110.466 100.642 110.714C100.838 110.958 100.993 111.253 101.106 111.6C101.219 111.946 101.298 112.338 101.342 112.775V113.278C101.301 113.712 101.223 114.102 101.106 114.449C100.993 114.795 100.838 115.09 100.642 115.335C100.448 115.579 100.211 115.767 99.9307 115.898C99.6499 116.026 99.3218 116.089 98.9463 116.089C98.5999 116.089 98.2827 116.015 97.9947 115.865C97.7104 115.716 97.4643 115.506 97.2564 115.236C97.0523 114.966 96.8937 114.649 96.7807 114.285C96.6713 113.916 96.6166 113.517 96.6166 113.087ZM97.6338 112.972V113.087C97.6338 113.382 97.663 113.659 97.7213 113.918C97.7833 114.177 97.8781 114.405 98.0057 114.602C98.1333 114.799 98.2955 114.954 98.4924 115.067C98.6893 115.176 98.9244 115.231 99.1978 115.231C99.5333 115.231 99.8085 115.16 100.024 115.017C100.242 114.875 100.417 114.688 100.549 114.454C100.68 114.221 100.782 113.967 100.855 113.694V112.376C100.811 112.176 100.747 111.982 100.663 111.796C100.583 111.607 100.478 111.439 100.346 111.293C100.219 111.144 100.06 111.025 99.8705 110.938C99.6846 110.85 99.464 110.807 99.2088 110.807C98.9317 110.807 98.6929 110.865 98.4924 110.982C98.2955 111.095 98.1333 111.251 98.0057 111.452C97.8781 111.649 97.7833 111.878 97.7213 112.141C97.663 112.4 97.6338 112.677 97.6338 112.972ZM106.679 114.968V111.922C106.679 111.689 106.632 111.486 106.537 111.315C106.446 111.14 106.307 111.005 106.121 110.91C105.935 110.816 105.706 110.768 105.432 110.768C105.177 110.768 104.953 110.812 104.76 110.9C104.57 110.987 104.421 111.102 104.311 111.244C104.205 111.386 104.153 111.539 104.153 111.703H103.141C103.141 111.492 103.196 111.282 103.305 111.075C103.414 110.867 103.571 110.679 103.775 110.511C103.983 110.34 104.231 110.205 104.519 110.107C104.811 110.004 105.135 109.953 105.492 109.953C105.923 109.953 106.302 110.026 106.63 110.172C106.962 110.318 107.221 110.539 107.406 110.834C107.596 111.126 107.691 111.492 107.691 111.933V114.689C107.691 114.886 107.707 115.096 107.74 115.318C107.776 115.541 107.829 115.732 107.899 115.892V115.98H106.843C106.792 115.863 106.752 115.708 106.723 115.515C106.694 115.318 106.679 115.136 106.679 114.968ZM106.854 112.392L106.865 113.103H105.842C105.554 113.103 105.297 113.127 105.071 113.175C104.845 113.218 104.656 113.286 104.503 113.377C104.349 113.468 104.233 113.583 104.153 113.721C104.072 113.856 104.032 114.015 104.032 114.197C104.032 114.383 104.074 114.553 104.158 114.706C104.242 114.859 104.368 114.981 104.535 115.072C104.707 115.16 104.916 115.203 105.164 115.203C105.474 115.203 105.748 115.138 105.985 115.007C106.222 114.875 106.409 114.715 106.548 114.525C106.69 114.336 106.767 114.152 106.778 113.973L107.21 114.46C107.184 114.613 107.115 114.782 107.002 114.968C106.889 115.154 106.737 115.333 106.548 115.504C106.362 115.672 106.14 115.812 105.881 115.925C105.625 116.035 105.337 116.089 105.017 116.089C104.616 116.089 104.264 116.011 103.961 115.854C103.662 115.697 103.429 115.488 103.261 115.225C103.097 114.959 103.015 114.662 103.015 114.334C103.015 114.017 103.077 113.738 103.201 113.497C103.325 113.253 103.504 113.051 103.737 112.89C103.97 112.726 104.251 112.602 104.579 112.518C104.907 112.434 105.274 112.392 105.678 112.392H106.854ZM110.857 115.367L112.503 110.063H113.586L111.213 116.893C111.158 117.039 111.085 117.196 110.994 117.364C110.906 117.535 110.793 117.697 110.655 117.85C110.516 118.003 110.349 118.127 110.152 118.222C109.959 118.321 109.727 118.37 109.457 118.37C109.377 118.37 109.275 118.359 109.151 118.337C109.027 118.315 108.94 118.297 108.888 118.282L108.883 117.462C108.912 117.466 108.958 117.469 109.02 117.473C109.085 117.48 109.131 117.484 109.156 117.484C109.386 117.484 109.581 117.453 109.742 117.391C109.902 117.333 110.037 117.232 110.146 117.09C110.259 116.952 110.356 116.76 110.436 116.516L110.857 115.367ZM109.649 110.063L111.185 114.657L111.448 115.723L110.721 116.095L108.544 110.063H109.649ZM117.945 114.41C117.945 114.265 117.912 114.13 117.846 114.006C117.784 113.878 117.655 113.763 117.458 113.661C117.265 113.556 116.973 113.464 116.583 113.388C116.255 113.319 115.958 113.236 115.692 113.142C115.429 113.047 115.205 112.932 115.019 112.797C114.837 112.662 114.696 112.504 114.598 112.321C114.499 112.139 114.45 111.926 114.45 111.682C114.45 111.448 114.501 111.228 114.603 111.02C114.709 110.812 114.857 110.628 115.046 110.467C115.24 110.307 115.471 110.181 115.741 110.09C116.011 109.999 116.311 109.953 116.643 109.953C117.117 109.953 117.522 110.037 117.857 110.205C118.193 110.373 118.45 110.597 118.628 110.878C118.807 111.155 118.896 111.463 118.896 111.802H117.885C117.885 111.638 117.835 111.479 117.737 111.326C117.642 111.169 117.502 111.04 117.316 110.938C117.134 110.836 116.909 110.785 116.643 110.785C116.362 110.785 116.135 110.828 115.96 110.916C115.788 111 115.662 111.107 115.582 111.239C115.506 111.37 115.467 111.508 115.467 111.654C115.467 111.764 115.486 111.862 115.522 111.95C115.562 112.033 115.631 112.112 115.73 112.185C115.828 112.254 115.967 112.32 116.146 112.382C116.324 112.444 116.552 112.506 116.829 112.567C117.314 112.677 117.713 112.808 118.027 112.961C118.34 113.114 118.574 113.302 118.727 113.525C118.88 113.747 118.956 114.017 118.956 114.334C118.956 114.593 118.902 114.83 118.792 115.045C118.687 115.26 118.532 115.446 118.328 115.603C118.127 115.756 117.886 115.876 117.606 115.964C117.329 116.047 117.017 116.089 116.671 116.089C116.149 116.089 115.708 115.996 115.347 115.81C114.986 115.625 114.713 115.384 114.527 115.089C114.341 114.793 114.248 114.482 114.248 114.153H115.265C115.28 114.431 115.36 114.651 115.506 114.815C115.651 114.976 115.83 115.09 116.042 115.16C116.253 115.225 116.463 115.258 116.671 115.258C116.948 115.258 117.179 115.222 117.365 115.149C117.555 115.076 117.699 114.976 117.797 114.848C117.896 114.72 117.945 114.575 117.945 114.41ZM122.615 112.742V112.797C122.615 113.596 122.526 114.317 122.347 114.963C122.168 115.608 121.941 116.171 121.663 116.653C121.386 117.138 121.095 117.539 120.788 117.856C120.482 118.177 120.2 118.408 119.941 118.55L119.728 117.938C119.943 117.774 120.16 117.544 120.378 117.249C120.597 116.957 120.799 116.596 120.985 116.166C121.171 115.739 121.321 115.247 121.434 114.689C121.547 114.128 121.603 113.501 121.603 112.808V112.732C121.603 112.039 121.543 111.414 121.423 110.856C121.303 110.294 121.146 109.8 120.953 109.374C120.763 108.947 120.559 108.588 120.34 108.296C120.125 108.001 119.921 107.773 119.728 107.613L119.941 106.995C120.2 107.137 120.482 107.369 120.788 107.689C121.095 108.007 121.386 108.408 121.663 108.892C121.941 109.377 122.168 109.942 122.347 110.588C122.526 111.229 122.615 111.948 122.615 112.742Z" fill="white"/>
</g>
<defs>
<filter id="filter0_d_101_44" x="0.5" y="0" width="392.25" height="159.78" filterUnits="userSpaceOnUse" color-interpolation-filters="sRGB">
<feFlood flood-opacity="0" result="BackgroundImageFix"/>
<feColorMatrix in="SourceAlpha" type="matrix" values="0 0 0 0 0 0 0 0 0 0 0 0 0 0 0 0 0 0 127 0" result="hardAlpha"/>
<feMorphology radius="2" operator="erode" in="SourceAlpha" result="effect1_dropShadow_101_44"/>
<feOffset dx="4" dy="8"/>
<feGaussianBlur stdDeviation="4.5"/>
<feComposite in2="hardAlpha" operator="out"/>
<feColorMatrix type="matrix" values="0 0 0 0 0.780392 0 0 0 0 0.772549 0 0 0 0 0.847059 0 0 0 1 0"/>
<feBlend mode="normal" in2="BackgroundImageFix" result="effect1_dropShadow_101_44"/>
<feBlend mode="normal" in="SourceGraphic" in2="effect1_dropShadow_101_44" result="shape"/>
</filter>
<clipPath id="clip0_101_44">
<rect width="32" height="32" fill="white" transform="matrix(1 0 0 -1 325.77 92.98)"/>
</clipPath>
</defs>
</svg>
