<svg width="393" height="160" viewBox="0 0 393 160" fill="none" xmlns="http://www.w3.org/2000/svg">
<g filter="url(#filter0_d_101_11)">
<rect x="3.25" width="378.25" height="144.78" fill="#3CB1E6"/>
<rect x="3.75" y="0.5" width="377.25" height="143.78" stroke="white"/>
<path d="M33.478 33.4365C33.478 33.2314 33.4461 33.0492 33.3823 32.8896C33.3231 32.7301 33.216 32.5843 33.061 32.4521C32.9061 32.32 32.6873 32.1924 32.4048 32.0693C32.1268 31.9417 31.7713 31.8118 31.3384 31.6797C30.8644 31.5339 30.4269 31.3721 30.0259 31.1943C29.6294 31.012 29.283 30.8024 28.9868 30.5654C28.6906 30.3239 28.4604 30.0482 28.2964 29.7383C28.1323 29.4238 28.0503 29.0615 28.0503 28.6514C28.0503 28.2458 28.1346 27.8766 28.3032 27.5439C28.4764 27.2113 28.7202 26.9242 29.0347 26.6826C29.3537 26.4365 29.7297 26.2474 30.1626 26.1152C30.5955 25.9785 31.0741 25.9102 31.5981 25.9102C32.3364 25.9102 32.9722 26.0469 33.5054 26.3203C34.0431 26.5938 34.4556 26.9606 34.7427 27.4209C35.0343 27.8812 35.1802 28.3893 35.1802 28.9453H33.478C33.478 28.6172 33.4074 28.3278 33.2661 28.0771C33.1294 27.8219 32.9198 27.6214 32.6372 27.4756C32.3592 27.3298 32.006 27.2568 31.5776 27.2568C31.172 27.2568 30.8348 27.3184 30.5659 27.4414C30.297 27.5645 30.0965 27.7308 29.9644 27.9404C29.8322 28.1501 29.7661 28.387 29.7661 28.6514C29.7661 28.8382 29.8094 29.0091 29.896 29.1641C29.9826 29.3145 30.1147 29.4557 30.2925 29.5879C30.4702 29.7155 30.6935 29.8363 30.9624 29.9502C31.2313 30.0641 31.548 30.1735 31.9126 30.2783C32.464 30.4424 32.9448 30.6247 33.355 30.8252C33.7651 31.0212 34.1069 31.2445 34.3804 31.4951C34.6538 31.7458 34.8589 32.0306 34.9956 32.3496C35.1323 32.6641 35.2007 33.0218 35.2007 33.4229C35.2007 33.8421 35.1164 34.2204 34.9478 34.5576C34.7791 34.8903 34.5376 35.1751 34.2231 35.4121C33.9132 35.6445 33.5396 35.8245 33.1021 35.9521C32.6691 36.0752 32.186 36.1367 31.6528 36.1367C31.1743 36.1367 30.7026 36.0729 30.2378 35.9453C29.7775 35.8177 29.3582 35.624 28.98 35.3643C28.6017 35.0999 28.3009 34.7718 28.0776 34.3799C27.8543 33.9834 27.7427 33.5208 27.7427 32.9922H29.4585C29.4585 33.3158 29.5132 33.5915 29.6226 33.8193C29.7365 34.0472 29.8937 34.234 30.0942 34.3799C30.2948 34.5212 30.5272 34.626 30.7915 34.6943C31.0604 34.7627 31.3475 34.7969 31.6528 34.7969C32.0539 34.7969 32.3888 34.7399 32.6577 34.626C32.9312 34.512 33.1362 34.3525 33.2729 34.1475C33.4097 33.9424 33.478 33.7054 33.478 33.4365ZM40.5942 27.373L37.6206 36H35.8228L39.5688 26.0469H40.7173L40.5942 27.373ZM43.0825 36L40.1021 27.373L39.9722 26.0469H41.1274L44.8872 36H43.0825ZM42.939 32.3086V33.6689H37.5249V32.3086H42.939ZM52.2358 34.6396V36H47.2388V34.6396H52.2358ZM47.7173 26.0469V36H46.0015V26.0469H47.7173ZM60.0767 34.6396V36H54.7925V34.6396H60.0767ZM55.2778 26.0469V36H53.562V26.0469H55.2778ZM59.3862 30.2031V31.543H54.7925V30.2031H59.3862ZM60.0425 26.0469V27.4141H54.7925V26.0469H60.0425ZM66.7144 33.4365C66.7144 33.2314 66.6825 33.0492 66.6187 32.8896C66.5594 32.7301 66.4523 32.5843 66.2974 32.4521C66.1424 32.32 65.9237 32.1924 65.6411 32.0693C65.3631 31.9417 65.0076 31.8118 64.5747 31.6797C64.1007 31.5339 63.6632 31.3721 63.2622 31.1943C62.8657 31.012 62.5194 30.8024 62.2231 30.5654C61.9269 30.3239 61.6968 30.0482 61.5327 29.7383C61.3687 29.4238 61.2866 29.0615 61.2866 28.6514C61.2866 28.2458 61.3709 27.8766 61.5396 27.5439C61.7127 27.2113 61.9565 26.9242 62.271 26.6826C62.59 26.4365 62.966 26.2474 63.3989 26.1152C63.8319 25.9785 64.3104 25.9102 64.8345 25.9102C65.5728 25.9102 66.2085 26.0469 66.7417 26.3203C67.2795 26.5938 67.6919 26.9606 67.979 27.4209C68.2707 27.8812 68.4165 28.3893 68.4165 28.9453H66.7144C66.7144 28.6172 66.6437 28.3278 66.5024 28.0771C66.3657 27.8219 66.1561 27.6214 65.8735 27.4756C65.5955 27.3298 65.2424 27.2568 64.814 27.2568C64.4084 27.2568 64.0711 27.3184 63.8022 27.4414C63.5334 27.5645 63.3328 27.7308 63.2007 27.9404C63.0685 28.1501 63.0024 28.387 63.0024 28.6514C63.0024 28.8382 63.0457 29.0091 63.1323 29.1641C63.2189 29.3145 63.3511 29.4557 63.5288 29.5879C63.7065 29.7155 63.9299 29.8363 64.1987 29.9502C64.4676 30.0641 64.7843 30.1735 65.1489 30.2783C65.7004 30.4424 66.1812 30.6247 66.5913 30.8252C67.0015 31.0212 67.3433 31.2445 67.6167 31.4951C67.8901 31.7458 68.0952 32.0306 68.2319 32.3496C68.3687 32.6641 68.437 33.0218 68.437 33.4229C68.437 33.8421 68.3527 34.2204 68.1841 34.5576C68.0155 34.8903 67.7739 35.1751 67.4595 35.4121C67.1496 35.6445 66.7759 35.8245 66.3384 35.9521C65.9054 36.0752 65.4224 36.1367 64.8892 36.1367C64.4106 36.1367 63.939 36.0729 63.4741 35.9453C63.0138 35.8177 62.5946 35.624 62.2163 35.3643C61.8381 35.0999 61.5373 34.7718 61.314 34.3799C61.0907 33.9834 60.979 33.5208 60.979 32.9922H62.6948C62.6948 33.3158 62.7495 33.5915 62.8589 33.8193C62.9728 34.0472 63.13 34.234 63.3306 34.3799C63.5311 34.5212 63.7635 34.626 64.0278 34.6943C64.2967 34.7627 64.5838 34.7969 64.8892 34.7969C65.2902 34.7969 65.6252 34.7399 65.894 34.626C66.1675 34.512 66.3726 34.3525 66.5093 34.1475C66.646 33.9424 66.7144 33.7054 66.7144 33.4365Z" fill="white"/>
<path d="M32.9868 74.7192H35.0962C35.9165 74.7192 36.5952 74.5776 37.1323 74.2944C37.6792 74.0112 38.0845 73.6206 38.3481 73.1226C38.6118 72.6245 38.7437 72.0532 38.7437 71.4087C38.7437 70.7349 38.6216 70.1587 38.3774 69.6802C38.1431 69.1919 37.7817 68.8159 37.2935 68.5522C36.8149 68.2886 36.2046 68.1567 35.4624 68.1567C34.8374 68.1567 34.271 68.2837 33.7632 68.5376C33.2651 68.7817 32.8696 69.1333 32.5767 69.5923C32.2837 70.0415 32.1372 70.5786 32.1372 71.2036H28.5923C28.5923 70.0708 28.8901 69.0649 29.4858 68.186C30.0815 67.3071 30.8921 66.6187 31.9175 66.1206C32.9526 65.6128 34.1147 65.3589 35.4038 65.3589C36.7808 65.3589 37.9819 65.5884 39.0073 66.0474C40.0425 66.4966 40.8481 67.1704 41.4243 68.0688C42.0005 68.9673 42.2886 70.0806 42.2886 71.4087C42.2886 72.0142 42.147 72.6294 41.8638 73.2544C41.5806 73.8794 41.1606 74.4507 40.604 74.9683C40.0474 75.4761 39.354 75.8911 38.5239 76.2134C37.6938 76.5259 36.7319 76.6821 35.6382 76.6821H32.9868V74.7192ZM32.9868 77.4731V75.5396H35.6382C36.8882 75.5396 37.9526 75.686 38.8315 75.979C39.7202 76.272 40.4429 76.6772 40.9995 77.1948C41.5562 77.7026 41.9614 78.2837 42.2153 78.938C42.479 79.5923 42.6108 80.2856 42.6108 81.0181C42.6108 82.0142 42.4302 82.9028 42.0688 83.6841C41.7173 84.4556 41.2144 85.1099 40.5601 85.647C39.9058 86.1841 39.1392 86.5894 38.2603 86.8628C37.3911 87.1362 36.4438 87.2729 35.4185 87.2729C34.5005 87.2729 33.6216 87.146 32.7817 86.8921C31.9419 86.6382 31.1899 86.2622 30.5259 85.7642C29.8618 85.2563 29.3345 84.6265 28.9438 83.8745C28.563 83.1128 28.3726 82.2339 28.3726 81.2378H31.9028C31.9028 81.8726 32.0493 82.4341 32.3423 82.9224C32.645 83.4009 33.0649 83.7769 33.6021 84.0503C34.1489 84.3237 34.7739 84.4604 35.4771 84.4604C36.2192 84.4604 36.8589 84.3286 37.396 84.0649C37.9331 83.8013 38.3433 83.4106 38.6265 82.8931C38.9194 82.3755 39.0659 81.7505 39.0659 81.0181C39.0659 80.188 38.9048 79.5142 38.5825 78.9966C38.2603 78.479 37.8013 78.0981 37.2056 77.854C36.6099 77.6001 35.9067 77.4731 35.0962 77.4731H32.9868ZM60.5845 79.3774V82.1899H45.2036L45.0864 80.0659L54.2856 65.6519H57.1128L54.0513 70.896L48.7632 79.3774H60.5845ZM57.9185 65.6519V86.98H54.3882V65.6519H57.9185ZM76.8442 74.5288V78.0151C76.8442 79.6851 76.6782 81.1108 76.3462 82.2925C76.0239 83.4644 75.5552 84.4165 74.9399 85.1489C74.3247 85.8813 73.5874 86.4185 72.728 86.7603C71.8784 87.1021 70.9263 87.2729 69.8716 87.2729C69.0317 87.2729 68.2505 87.1655 67.5278 86.9507C66.8149 86.7358 66.1704 86.3989 65.5942 85.9399C65.0181 85.481 64.5249 84.8901 64.1147 84.1675C63.7144 83.4351 63.4019 82.561 63.1772 81.5454C62.9624 80.5298 62.855 79.353 62.855 78.0151V74.5288C62.855 72.8491 63.021 71.4331 63.353 70.2808C63.6851 69.1187 64.1587 68.1763 64.7739 67.4536C65.3892 66.7212 66.1216 66.189 66.9712 65.8569C67.8306 65.5249 68.7876 65.3589 69.8423 65.3589C70.6919 65.3589 71.4731 65.4663 72.186 65.6812C72.9087 65.8862 73.5532 66.2134 74.1196 66.6626C74.6958 67.1118 75.1841 67.6978 75.5845 68.4204C75.9946 69.1333 76.3071 69.9976 76.522 71.0132C76.7368 72.019 76.8442 73.1909 76.8442 74.5288ZM73.314 78.5132V74.0015C73.314 73.1519 73.2651 72.4048 73.1675 71.7603C73.0698 71.106 72.9233 70.5542 72.728 70.105C72.5425 69.646 72.3081 69.2749 72.0249 68.9917C71.7417 68.6987 71.4194 68.4888 71.0581 68.3618C70.6968 68.2251 70.2915 68.1567 69.8423 68.1567C69.2954 68.1567 68.8071 68.2642 68.3774 68.479C67.9478 68.6841 67.5864 69.0161 67.2935 69.4751C67.0005 69.9341 66.7759 70.5396 66.6196 71.2915C66.4731 72.0337 66.3999 72.937 66.3999 74.0015V78.5132C66.3999 79.3726 66.4487 80.1294 66.5464 80.7837C66.644 81.438 66.7905 81.9995 66.9858 82.4683C67.1812 82.9272 67.4155 83.3081 67.689 83.6108C67.9722 83.9038 68.2944 84.1187 68.6558 84.2554C69.0269 84.3921 69.4321 84.4604 69.8716 84.4604C70.4282 84.4604 70.9214 84.353 71.3511 84.1382C71.7808 83.9233 72.1421 83.5815 72.4351 83.1128C72.728 82.6343 72.9478 82.0142 73.0942 81.2524C73.2407 80.4907 73.314 79.5776 73.314 78.5132ZM94.686 79.3774V82.1899H79.3052L79.188 80.0659L88.3872 65.6519H91.2144L88.1528 70.896L82.8647 79.3774H94.686ZM92.02 65.6519V86.98H88.4897V65.6519H92.02ZM110.946 74.5288V78.0151C110.946 79.6851 110.78 81.1108 110.448 82.2925C110.125 83.4644 109.657 84.4165 109.042 85.1489C108.426 85.8813 107.689 86.4185 106.83 86.7603C105.98 87.1021 105.028 87.2729 103.973 87.2729C103.133 87.2729 102.352 87.1655 101.629 86.9507C100.917 86.7358 100.272 86.3989 99.6958 85.9399C99.1196 85.481 98.6265 84.8901 98.2163 84.1675C97.8159 83.4351 97.5034 82.561 97.2788 81.5454C97.064 80.5298 96.9565 79.353 96.9565 78.0151V74.5288C96.9565 72.8491 97.1226 71.4331 97.4546 70.2808C97.7866 69.1187 98.2603 68.1763 98.8755 67.4536C99.4907 66.7212 100.223 66.189 101.073 65.8569C101.932 65.5249 102.889 65.3589 103.944 65.3589C104.793 65.3589 105.575 65.4663 106.288 65.6812C107.01 65.8862 107.655 66.2134 108.221 66.6626C108.797 67.1118 109.286 67.6978 109.686 68.4204C110.096 69.1333 110.409 69.9976 110.624 71.0132C110.838 72.019 110.946 73.1909 110.946 74.5288ZM107.416 78.5132V74.0015C107.416 73.1519 107.367 72.4048 107.269 71.7603C107.171 71.106 107.025 70.5542 106.83 70.105C106.644 69.646 106.41 69.2749 106.126 68.9917C105.843 68.6987 105.521 68.4888 105.16 68.3618C104.798 68.2251 104.393 68.1567 103.944 68.1567C103.397 68.1567 102.909 68.2642 102.479 68.479C102.049 68.6841 101.688 69.0161 101.395 69.4751C101.102 69.9341 100.877 70.5396 100.721 71.2915C100.575 72.0337 100.501 72.937 100.501 74.0015V78.5132C100.501 79.3726 100.55 80.1294 100.648 80.7837C100.746 81.438 100.892 81.9995 101.087 82.4683C101.283 82.9272 101.517 83.3081 101.791 83.6108C102.074 83.9038 102.396 84.1187 102.757 84.2554C103.128 84.3921 103.534 84.4604 103.973 84.4604C104.53 84.4604 105.023 84.353 105.453 84.1382C105.882 83.9233 106.244 83.5815 106.537 83.1128C106.83 82.6343 107.049 82.0142 107.196 81.2524C107.342 80.4907 107.416 79.5776 107.416 78.5132Z" fill="white"/>
<g clip-path="url(#clip0_101_11)">
<path d="M351.895 64.73V62.855H346.208V64.73H336.833V62.855H331.145V64.73H325.52V92.98H357.52V64.73H351.895ZM348.083 64.73H350.02V68.48H348.083V64.73ZM333.02 64.73H334.958V68.48H333.02V64.73ZM355.645 91.105H327.395V74.2925H355.645V91.105ZM327.395 72.4175V66.605H331.145V70.4175H336.833V66.605H346.208V70.4175H351.895V66.605H355.645V72.4175H327.395Z" fill="white"/>
</g>
<path d="M34.3052 110.21V111.728C34.3052 112.544 34.2323 113.232 34.0864 113.792C33.9406 114.353 33.731 114.804 33.4575 115.146C33.1841 115.488 32.8537 115.736 32.4663 115.891C32.0835 116.042 31.6506 116.117 31.1675 116.117C30.7847 116.117 30.4315 116.069 30.1079 115.973C29.7843 115.877 29.4927 115.725 29.2329 115.515C28.9777 115.301 28.759 115.023 28.5767 114.681C28.3944 114.339 28.2554 113.925 28.1597 113.437C28.064 112.949 28.0161 112.38 28.0161 111.728V110.21C28.0161 109.395 28.089 108.711 28.2349 108.16C28.3853 107.608 28.5972 107.166 28.8706 106.833C29.144 106.496 29.4722 106.255 29.855 106.109C30.2424 105.963 30.6753 105.89 31.1538 105.89C31.5412 105.89 31.8966 105.938 32.2202 106.034C32.5483 106.125 32.84 106.273 33.0952 106.478C33.3504 106.679 33.5669 106.947 33.7446 107.285C33.9269 107.617 34.0659 108.025 34.1616 108.508C34.2573 108.991 34.3052 109.559 34.3052 110.21ZM33.0337 111.933V109.999C33.0337 109.552 33.0063 109.16 32.9517 108.823C32.9015 108.481 32.8263 108.189 32.7261 107.948C32.6258 107.706 32.4982 107.51 32.3433 107.36C32.1929 107.209 32.0174 107.1 31.8169 107.032C31.6209 106.959 31.3999 106.922 31.1538 106.922C30.853 106.922 30.5864 106.979 30.354 107.093C30.1216 107.203 29.9256 107.378 29.7661 107.62C29.6112 107.861 29.4927 108.178 29.4106 108.57C29.3286 108.962 29.2876 109.438 29.2876 109.999V111.933C29.2876 112.38 29.3127 112.774 29.3628 113.116C29.4175 113.458 29.4972 113.754 29.6021 114.004C29.7069 114.25 29.8345 114.453 29.9849 114.613C30.1353 114.772 30.3084 114.891 30.5044 114.968C30.7049 115.041 30.9259 115.078 31.1675 115.078C31.4774 115.078 31.7485 115.018 31.981 114.9C32.2134 114.781 32.4071 114.597 32.562 114.346C32.7215 114.091 32.84 113.765 32.9175 113.369C32.995 112.968 33.0337 112.489 33.0337 111.933ZM36.0894 115.31C36.0894 115.096 36.1554 114.916 36.2876 114.77C36.4243 114.62 36.6203 114.544 36.8755 114.544C37.1307 114.544 37.3244 114.62 37.4565 114.77C37.5933 114.916 37.6616 115.096 37.6616 115.31C37.6616 115.52 37.5933 115.697 37.4565 115.843C37.3244 115.989 37.1307 116.062 36.8755 116.062C36.6203 116.062 36.4243 115.989 36.2876 115.843C36.1554 115.697 36.0894 115.52 36.0894 115.31ZM43.7798 105.972V115.98H42.5151V107.551L39.9653 108.481V107.339L43.5815 105.972H43.7798ZM54.02 114.941V115.98H47.5054V115.071L50.7661 111.441C51.1672 110.994 51.4771 110.616 51.6958 110.306C51.9191 109.992 52.0741 109.711 52.1606 109.465C52.2518 109.215 52.2974 108.959 52.2974 108.7C52.2974 108.372 52.229 108.075 52.0923 107.811C51.9601 107.542 51.7642 107.328 51.5044 107.168C51.2446 107.009 50.9302 106.929 50.561 106.929C50.119 106.929 49.7498 107.016 49.4536 107.189C49.1619 107.358 48.9432 107.595 48.7974 107.9C48.6515 108.205 48.5786 108.556 48.5786 108.953H47.314C47.314 108.392 47.437 107.879 47.6831 107.415C47.9292 106.95 48.2938 106.581 48.7769 106.307C49.2599 106.029 49.8547 105.89 50.561 105.89C51.1899 105.89 51.7277 106.002 52.1743 106.225C52.6209 106.444 52.9627 106.754 53.1997 107.155C53.4412 107.551 53.562 108.016 53.562 108.549C53.562 108.841 53.5119 109.137 53.4116 109.438C53.3159 109.734 53.1815 110.03 53.0083 110.327C52.8397 110.623 52.6414 110.915 52.4136 111.202C52.1903 111.489 51.951 111.771 51.6958 112.049L49.0298 114.941H54.02ZM55.2642 108.467V107.941C55.2642 107.563 55.3462 107.219 55.5103 106.909C55.6743 106.599 55.909 106.35 56.2144 106.164C56.5197 105.977 56.882 105.883 57.3013 105.883C57.7297 105.883 58.0942 105.977 58.395 106.164C58.7004 106.35 58.9351 106.599 59.0991 106.909C59.2632 107.219 59.3452 107.563 59.3452 107.941V108.467C59.3452 108.836 59.2632 109.176 59.0991 109.486C58.9396 109.796 58.7072 110.044 58.4019 110.231C58.1011 110.418 57.7388 110.511 57.3149 110.511C56.8911 110.511 56.5243 110.418 56.2144 110.231C55.909 110.044 55.6743 109.796 55.5103 109.486C55.3462 109.176 55.2642 108.836 55.2642 108.467ZM56.2144 107.941V108.467C56.2144 108.677 56.2531 108.875 56.3306 109.062C56.4126 109.249 56.5356 109.402 56.6997 109.52C56.8638 109.634 57.0688 109.691 57.3149 109.691C57.561 109.691 57.7638 109.634 57.9233 109.52C58.0828 109.402 58.2013 109.249 58.2788 109.062C58.3563 108.875 58.395 108.677 58.395 108.467V107.941C58.395 107.727 58.354 107.526 58.272 107.339C58.1945 107.148 58.0737 106.995 57.9097 106.881C57.7502 106.763 57.5474 106.704 57.3013 106.704C57.0597 106.704 56.8569 106.763 56.6929 106.881C56.5334 106.995 56.4126 107.148 56.3306 107.339C56.2531 107.526 56.2144 107.727 56.2144 107.941ZM60.1108 114.073V113.54C60.1108 113.166 60.1929 112.824 60.3569 112.514C60.521 112.204 60.7557 111.956 61.061 111.769C61.3664 111.582 61.7287 111.489 62.1479 111.489C62.5763 111.489 62.9409 111.582 63.2417 111.769C63.547 111.956 63.7817 112.204 63.9458 112.514C64.1099 112.824 64.1919 113.166 64.1919 113.54V114.073C64.1919 114.446 64.1099 114.788 63.9458 115.098C63.7863 115.408 63.5539 115.656 63.2485 115.843C62.9478 116.03 62.5854 116.124 62.1616 116.124C61.7378 116.124 61.3732 116.03 61.0679 115.843C60.7625 115.656 60.5256 115.408 60.3569 115.098C60.1929 114.788 60.1108 114.446 60.1108 114.073ZM61.061 113.54V114.073C61.061 114.282 61.0998 114.483 61.1772 114.674C61.2593 114.861 61.3823 115.014 61.5464 115.132C61.7104 115.246 61.9155 115.303 62.1616 115.303C62.4077 115.303 62.6105 115.246 62.77 115.132C62.9341 115.014 63.0549 114.861 63.1323 114.674C63.2098 114.487 63.2485 114.287 63.2485 114.073V113.54C63.2485 113.325 63.2075 113.125 63.1255 112.938C63.048 112.751 62.9272 112.601 62.7632 112.487C62.6037 112.368 62.3986 112.309 62.1479 112.309C61.9064 112.309 61.7036 112.368 61.5396 112.487C61.38 112.601 61.2593 112.751 61.1772 112.938C61.0998 113.125 61.061 113.325 61.061 113.54ZM62.4624 107.442L57.6021 115.221L56.8911 114.77L61.7515 106.991L62.4624 107.442Z" fill="white"/>
<path d="M72.9628 112.797V112.742C72.9628 111.948 73.0521 111.229 73.2308 110.588C73.4094 109.942 73.6373 109.377 73.9144 108.892C74.1914 108.408 74.4831 108.007 74.7894 107.689C75.0956 107.369 75.3782 107.137 75.637 106.995L75.8503 107.662C75.6352 107.826 75.4164 108.052 75.194 108.34C74.9753 108.628 74.7729 108.982 74.587 109.401C74.4047 109.82 74.2571 110.307 74.144 110.861C74.031 111.415 73.9745 112.039 73.9745 112.732V112.808C73.9745 113.501 74.031 114.126 74.144 114.684C74.2571 115.238 74.4047 115.727 74.587 116.15C74.7729 116.572 74.9753 116.932 75.194 117.227C75.4164 117.526 75.6352 117.763 75.8503 117.938L75.637 118.55C75.3782 118.408 75.0956 118.177 74.7894 117.856C74.4831 117.539 74.1914 117.138 73.9144 116.653C73.6373 116.171 73.4094 115.608 73.2308 114.963C73.0521 114.317 72.9628 113.596 72.9628 112.797ZM78.2073 111.501H78.9292C79.2828 111.501 79.5745 111.443 79.8042 111.326C80.0375 111.206 80.2107 111.044 80.3237 110.839C80.4404 110.632 80.4987 110.398 80.4987 110.139C80.4987 109.833 80.4477 109.576 80.3456 109.368C80.2435 109.16 80.0904 109.004 79.8862 108.898C79.6821 108.792 79.4232 108.739 79.1097 108.739C78.8253 108.739 78.5737 108.796 78.355 108.909C78.1399 109.018 77.9703 109.175 77.8464 109.379C77.7261 109.583 77.6659 109.824 77.6659 110.101H76.6542C76.6542 109.696 76.7563 109.328 76.9604 108.996C77.1646 108.665 77.4508 108.4 77.819 108.203C78.1909 108.007 78.6211 107.908 79.1097 107.908C79.5909 107.908 80.012 107.994 80.3729 108.165C80.7339 108.333 81.0146 108.584 81.2151 108.92C81.4157 109.252 81.5159 109.665 81.5159 110.161C81.5159 110.362 81.4685 110.577 81.3737 110.807C81.2826 111.033 81.1386 111.244 80.9417 111.441C80.7485 111.638 80.4969 111.8 80.187 111.928C79.8771 112.052 79.5052 112.114 79.0714 112.114H78.2073V111.501ZM78.2073 112.332V111.725H79.0714C79.5782 111.725 79.9974 111.785 80.3292 111.906C80.661 112.026 80.9216 112.186 81.1112 112.387C81.3045 112.588 81.4394 112.808 81.5159 113.049C81.5961 113.286 81.6362 113.523 81.6362 113.76C81.6362 114.132 81.5724 114.461 81.4448 114.75C81.3209 115.038 81.144 115.282 80.9144 115.482C80.6883 115.683 80.4222 115.834 80.1159 115.936C79.8097 116.038 79.4761 116.089 79.1151 116.089C78.7688 116.089 78.4425 116.04 78.1362 115.942C77.8336 115.843 77.5657 115.701 77.3323 115.515C77.099 115.326 76.9167 115.094 76.7854 114.821C76.6542 114.544 76.5886 114.228 76.5886 113.875H77.6003C77.6003 114.152 77.6604 114.394 77.7808 114.602C77.9047 114.81 78.0797 114.972 78.3058 115.089C78.5354 115.202 78.8052 115.258 79.1151 115.258C79.425 115.258 79.6912 115.205 79.9136 115.1C80.1396 114.99 80.3128 114.826 80.4331 114.607C80.5571 114.389 80.619 114.113 80.619 113.782C80.619 113.45 80.5498 113.178 80.4112 112.967C80.2727 112.752 80.0758 112.593 79.8206 112.491C79.569 112.385 79.2719 112.332 78.9292 112.332H78.2073ZM88.0292 111.364V112.578C88.0292 113.231 87.9709 113.782 87.8542 114.23C87.7375 114.678 87.5698 115.039 87.3511 115.313C87.1323 115.586 86.868 115.785 86.5581 115.909C86.2519 116.029 85.9055 116.089 85.519 116.089C85.2128 116.089 84.9302 116.051 84.6714 115.975C84.4125 115.898 84.1792 115.776 83.9714 115.608C83.7672 115.437 83.5922 115.214 83.4464 114.941C83.3006 114.667 83.1894 114.336 83.1128 113.946C83.0362 113.556 82.9979 113.1 82.9979 112.578V111.364C82.9979 110.712 83.0563 110.165 83.1729 109.724C83.2933 109.283 83.4628 108.929 83.6815 108.663C83.9003 108.393 84.1628 108.2 84.469 108.083C84.7789 107.966 85.1253 107.908 85.5081 107.908C85.818 107.908 86.1024 107.946 86.3612 108.023C86.6237 108.096 86.8571 108.214 87.0612 108.378C87.2654 108.539 87.4386 108.754 87.5808 109.024C87.7266 109.29 87.8378 109.616 87.9144 110.003C87.9909 110.389 88.0292 110.843 88.0292 111.364ZM87.012 112.742V111.195C87.012 110.838 86.9901 110.524 86.9464 110.254C86.9063 109.981 86.8461 109.747 86.7659 109.554C86.6857 109.361 86.5836 109.204 86.4597 109.084C86.3394 108.964 86.199 108.876 86.0386 108.821C85.8818 108.763 85.705 108.734 85.5081 108.734C85.2675 108.734 85.0542 108.779 84.8683 108.871C84.6823 108.958 84.5256 109.098 84.3979 109.292C84.274 109.485 84.1792 109.738 84.1136 110.052C84.0479 110.365 84.0151 110.746 84.0151 111.195V112.742C84.0151 113.1 84.0352 113.415 84.0753 113.689C84.119 113.962 84.1828 114.199 84.2667 114.4C84.3506 114.596 84.4526 114.759 84.5729 114.886C84.6933 115.014 84.8318 115.109 84.9886 115.171C85.149 115.229 85.3258 115.258 85.519 115.258C85.767 115.258 85.9839 115.211 86.1698 115.116C86.3558 115.021 86.5107 114.873 86.6347 114.673C86.7623 114.469 86.8571 114.208 86.919 113.891C86.981 113.57 87.012 113.187 87.012 112.742ZM95.9479 114.832V107.58H96.9651V115.98H96.0354L95.9479 114.832ZM91.9667 113.087V112.972C91.9667 112.52 92.0214 112.11 92.1308 111.742C92.2438 111.37 92.4024 111.051 92.6065 110.785C92.8144 110.519 93.0604 110.314 93.3448 110.172C93.6328 110.026 93.9537 109.953 94.3073 109.953C94.6792 109.953 95.0037 110.019 95.2808 110.15C95.5615 110.278 95.7985 110.466 95.9917 110.714C96.1886 110.958 96.3435 111.253 96.4565 111.6C96.5696 111.946 96.6479 112.338 96.6917 112.775V113.278C96.6516 113.712 96.5732 114.102 96.4565 114.449C96.3435 114.795 96.1886 115.09 95.9917 115.335C95.7985 115.579 95.5615 115.767 95.2808 115.898C95 116.026 94.6719 116.089 94.2964 116.089C93.95 116.089 93.6328 116.015 93.3448 115.865C93.0604 115.716 92.8144 115.506 92.6065 115.236C92.4024 114.966 92.2438 114.649 92.1308 114.285C92.0214 113.916 91.9667 113.517 91.9667 113.087ZM92.9839 112.972V113.087C92.9839 113.382 93.0131 113.659 93.0714 113.918C93.1334 114.177 93.2282 114.405 93.3558 114.602C93.4834 114.799 93.6456 114.954 93.8425 115.067C94.0394 115.176 94.2745 115.231 94.5479 115.231C94.8834 115.231 95.1586 115.16 95.3737 115.017C95.5925 114.875 95.7675 114.688 95.8987 114.454C96.03 114.221 96.1321 113.967 96.205 113.694V112.376C96.1612 112.176 96.0974 111.982 96.0136 111.796C95.9334 111.607 95.8276 111.439 95.6964 111.293C95.5688 111.144 95.4102 111.025 95.2206 110.938C95.0347 110.85 94.8141 110.807 94.5589 110.807C94.2818 110.807 94.043 110.865 93.8425 110.982C93.6456 111.095 93.4834 111.251 93.3558 111.452C93.2282 111.649 93.1334 111.878 93.0714 112.141C93.0131 112.4 92.9839 112.677 92.9839 112.972ZM102.029 114.968V111.922C102.029 111.689 101.982 111.486 101.887 111.315C101.796 111.14 101.657 111.005 101.471 110.91C101.285 110.816 101.056 110.768 100.782 110.768C100.527 110.768 100.303 110.812 100.11 110.9C99.9201 110.987 99.7706 111.102 99.6612 111.244C99.5555 111.386 99.5026 111.539 99.5026 111.703H98.4909C98.4909 111.492 98.5456 111.282 98.655 111.075C98.7644 110.867 98.9211 110.679 99.1253 110.511C99.3331 110.34 99.581 110.205 99.869 110.107C100.161 110.004 100.485 109.953 100.842 109.953C101.273 109.953 101.652 110.026 101.98 110.172C102.312 110.318 102.571 110.539 102.757 110.834C102.946 111.126 103.041 111.492 103.041 111.933V114.689C103.041 114.886 103.057 115.096 103.09 115.318C103.127 115.541 103.179 115.732 103.249 115.892V115.98H102.193C102.142 115.863 102.102 115.708 102.073 115.515C102.044 115.318 102.029 115.136 102.029 114.968ZM102.204 112.392L102.215 113.103H101.192C100.904 113.103 100.647 113.127 100.421 113.175C100.195 113.218 100.006 113.286 99.8526 113.377C99.6995 113.468 99.5828 113.583 99.5026 113.721C99.4224 113.856 99.3823 114.015 99.3823 114.197C99.3823 114.383 99.4243 114.553 99.5081 114.706C99.592 114.859 99.7177 114.981 99.8854 115.072C100.057 115.16 100.266 115.203 100.514 115.203C100.824 115.203 101.098 115.138 101.335 115.007C101.572 114.875 101.759 114.715 101.898 114.525C102.04 114.336 102.117 114.152 102.128 113.973L102.56 114.46C102.534 114.613 102.465 114.782 102.352 114.968C102.239 115.154 102.088 115.333 101.898 115.504C101.712 115.672 101.49 115.812 101.231 115.925C100.976 116.035 100.688 116.089 100.367 116.089C99.9657 116.089 99.6138 116.011 99.3112 115.854C99.0123 115.697 98.7789 115.488 98.6112 115.225C98.4472 114.959 98.3651 114.662 98.3651 114.334C98.3651 114.017 98.4271 113.738 98.5511 113.497C98.675 113.253 98.8537 113.051 99.087 112.89C99.3203 112.726 99.6011 112.602 99.9292 112.518C100.257 112.434 100.624 112.392 101.028 112.392H102.204ZM106.207 115.367L107.853 110.063H108.936L106.563 116.893C106.508 117.039 106.435 117.196 106.344 117.364C106.257 117.535 106.144 117.697 106.005 117.85C105.866 118.003 105.699 118.127 105.502 118.222C105.309 118.321 105.077 118.37 104.807 118.37C104.727 118.37 104.625 118.359 104.501 118.337C104.377 118.315 104.29 118.297 104.239 118.282L104.233 117.462C104.262 117.466 104.308 117.469 104.37 117.473C104.435 117.48 104.481 117.484 104.507 117.484C104.736 117.484 104.931 117.453 105.092 117.391C105.252 117.333 105.387 117.232 105.496 117.09C105.609 116.952 105.706 116.76 105.786 116.516L106.207 115.367ZM104.999 110.063L106.535 114.657L106.798 115.723L106.071 116.095L103.894 110.063H104.999ZM113.295 114.41C113.295 114.265 113.262 114.13 113.196 114.006C113.134 113.878 113.005 113.763 112.808 113.661C112.615 113.556 112.323 113.464 111.933 113.388C111.605 113.319 111.308 113.236 111.042 113.142C110.779 113.047 110.555 112.932 110.369 112.797C110.187 112.662 110.046 112.504 109.948 112.321C109.85 112.139 109.8 111.926 109.8 111.682C109.8 111.448 109.851 111.228 109.953 111.02C110.059 110.812 110.207 110.628 110.396 110.467C110.59 110.307 110.821 110.181 111.091 110.09C111.361 109.999 111.661 109.953 111.993 109.953C112.467 109.953 112.872 110.037 113.207 110.205C113.543 110.373 113.8 110.597 113.978 110.878C114.157 111.155 114.246 111.463 114.246 111.802H113.235C113.235 111.638 113.185 111.479 113.087 111.326C112.992 111.169 112.852 111.04 112.666 110.938C112.484 110.836 112.259 110.785 111.993 110.785C111.713 110.785 111.485 110.828 111.31 110.916C111.138 111 111.013 111.107 110.932 111.239C110.856 111.37 110.817 111.508 110.817 111.654C110.817 111.764 110.836 111.862 110.872 111.95C110.912 112.033 110.982 112.112 111.08 112.185C111.178 112.254 111.317 112.32 111.496 112.382C111.674 112.444 111.902 112.506 112.179 112.567C112.664 112.677 113.063 112.808 113.377 112.961C113.69 113.114 113.924 113.302 114.077 113.525C114.23 113.747 114.307 114.017 114.307 114.334C114.307 114.593 114.252 114.83 114.142 115.045C114.037 115.26 113.882 115.446 113.678 115.603C113.477 115.756 113.236 115.876 112.956 115.964C112.679 116.047 112.367 116.089 112.021 116.089C111.499 116.089 111.058 115.996 110.697 115.81C110.336 115.625 110.063 115.384 109.877 115.089C109.691 114.793 109.598 114.482 109.598 114.153H110.615C110.63 114.431 110.71 114.651 110.856 114.815C111.002 114.976 111.18 115.09 111.392 115.16C111.603 115.225 111.813 115.258 112.021 115.258C112.298 115.258 112.529 115.222 112.715 115.149C112.905 115.076 113.049 114.976 113.147 114.848C113.246 114.72 113.295 114.575 113.295 114.41ZM117.965 112.742V112.797C117.965 113.596 117.876 114.317 117.697 114.963C117.519 115.608 117.291 116.171 117.014 116.653C116.736 117.138 116.445 117.539 116.139 117.856C115.832 118.177 115.55 118.408 115.291 118.55L115.078 117.938C115.293 117.774 115.51 117.544 115.728 117.249C115.947 116.957 116.15 116.596 116.335 116.166C116.521 115.739 116.671 115.247 116.784 114.689C116.897 114.128 116.953 113.501 116.953 112.808V112.732C116.953 112.039 116.893 111.414 116.773 110.856C116.653 110.294 116.496 109.8 116.303 109.374C116.113 108.947 115.909 108.588 115.69 108.296C115.475 108.001 115.271 107.773 115.078 107.613L115.291 106.995C115.55 107.137 115.832 107.369 116.139 107.689C116.445 108.007 116.736 108.408 117.014 108.892C117.291 109.377 117.519 109.942 117.697 110.588C117.876 111.229 117.965 111.948 117.965 112.742Z" fill="white"/>
</g>
<defs>
<filter id="filter0_d_101_11" x="0.25" y="0" width="392.25" height="159.78" filterUnits="userSpaceOnUse" color-interpolation-filters="sRGB">
<feFlood flood-opacity="0" result="BackgroundImageFix"/>
<feColorMatrix in="SourceAlpha" type="matrix" values="0 0 0 0 0 0 0 0 0 0 0 0 0 0 0 0 0 0 127 0" result="hardAlpha"/>
<feMorphology radius="2" operator="erode" in="SourceAlpha" result="effect1_dropShadow_101_11"/>
<feOffset dx="4" dy="8"/>
<feGaussianBlur stdDeviation="4.5"/>
<feComposite in2="hardAlpha" operator="out"/>
<feColorMatrix type="matrix" values="0 0 0 0 0.780392 0 0 0 0 0.772549 0 0 0 0 0.847059 0 0 0 1 0"/>
<feBlend mode="normal" in2="BackgroundImageFix" result="effect1_dropShadow_101_11"/>
<feBlend mode="normal" in="SourceGraphic" in2="effect1_dropShadow_101_11" result="shape"/>
</filter>
<clipPath id="clip0_101_11">
<rect width="32" height="32" fill="white" transform="matrix(1 0 0 -1 325.52 92.98)"/>
</clipPath>
</defs>
</svg>
